<svg id="svg" version="1.1" xmlns="http://www.w3.org/2000/svg" xmlns:xlink="http://www.w3.org/1999/xlink" width="400" height="400" viewBox="0, 0, 400,400"><g id="svgg"><path id="path0" d="M269.702 199.622 L 269.800 388.200 270.800 388.062 C 271.350 387.986,271.860 387.761,271.933 387.562 C 272.007 387.363,272.412 387.200,272.833 387.200 C 273.255 387.200,273.600 387.020,273.600 386.800 C 273.600 386.580,274.140 386.400,274.800 386.400 C 275.460 386.400,276.000 386.220,276.000 386.000 C 276.000 385.780,276.360 385.600,276.800 385.600 C 277.240 385.600,277.600 385.420,277.600 385.200 C 277.600 384.980,277.960 384.800,278.400 384.800 C 278.840 384.800,279.200 384.620,279.200 384.400 C 279.200 384.180,279.560 384.000,280.000 384.000 C 280.440 384.000,280.800 383.820,280.800 383.600 C 280.800 383.380,281.329 383.200,281.976 383.200 C 282.623 383.200,283.264 383.020,283.400 382.800 C 283.536 382.580,284.009 382.400,284.452 382.400 C 285.334 382.400,286.510 381.443,286.114 381.048 C 285.978 380.911,286.347 380.800,286.933 380.800 C 287.520 380.800,288.000 380.609,288.000 380.376 C 288.000 380.143,288.138 380.038,288.308 380.143 C 288.749 380.416,291.668 379.001,291.340 378.673 C 291.190 378.523,291.367 378.400,291.733 378.400 C 292.100 378.400,292.400 378.220,292.400 378.000 C 292.400 377.780,292.760 377.600,293.200 377.600 C 293.640 377.600,294.000 377.420,294.000 377.200 C 294.000 376.980,294.416 376.800,294.925 376.800 C 295.433 376.800,296.236 376.440,296.708 376.000 C 297.180 375.560,297.781 375.200,298.043 375.200 C 298.749 375.200,302.800 373.085,302.800 372.716 C 302.800 372.542,303.078 372.400,303.417 372.400 C 303.756 372.400,304.389 372.069,304.823 371.664 C 305.258 371.259,306.105 370.675,306.707 370.367 C 307.308 370.058,308.091 369.489,308.447 369.103 C 308.803 368.716,309.348 368.400,309.659 368.400 C 309.969 368.400,310.483 368.040,310.800 367.600 C 311.117 367.160,311.742 366.797,312.188 366.794 C 312.859 366.789,312.896 366.720,312.400 366.400 C 311.915 366.086,311.972 366.011,312.700 366.006 C 313.195 366.003,313.600 365.820,313.600 365.600 C 313.600 365.380,313.920 365.200,314.312 365.200 C 314.703 365.200,315.283 364.840,315.600 364.400 C 315.917 363.960,316.385 363.600,316.640 363.600 C 316.895 363.600,317.834 362.891,318.727 362.025 C 319.718 361.063,320.425 360.635,320.543 360.925 C 320.650 361.186,320.751 360.984,320.768 360.476 C 320.786 359.968,320.965 359.655,321.168 359.780 C 321.370 359.905,321.807 359.736,322.139 359.404 C 322.471 359.072,322.951 358.800,323.205 358.800 C 323.459 358.800,324.279 358.170,325.026 357.400 C 325.774 356.630,326.545 356.000,326.739 356.000 C 326.934 356.000,328.123 355.010,329.382 353.800 C 330.642 352.590,331.834 351.600,332.032 351.600 C 332.230 351.600,334.445 349.512,336.955 346.959 C 342.456 341.364,341.364 342.456,346.959 336.955 C 349.512 334.445,351.600 332.230,351.600 332.032 C 351.600 331.834,352.590 330.642,353.800 329.382 C 355.010 328.123,356.000 326.934,356.000 326.739 C 356.000 326.545,356.630 325.774,357.400 325.026 C 358.170 324.279,358.800 323.454,358.800 323.194 C 358.800 322.934,359.359 322.199,360.042 321.560 C 360.726 320.922,361.086 320.400,360.843 320.400 C 360.600 320.400,361.121 319.658,362.000 318.752 C 362.880 317.845,363.600 316.895,363.600 316.640 C 363.600 316.385,363.960 315.917,364.400 315.600 C 364.840 315.283,365.200 314.703,365.200 314.312 C 365.200 313.920,365.380 313.600,365.600 313.600 C 365.820 313.600,366.003 313.195,366.006 312.700 C 366.011 311.972,366.086 311.915,366.400 312.400 C 366.720 312.896,366.789 312.859,366.794 312.188 C 366.797 311.742,367.160 311.117,367.600 310.800 C 368.040 310.483,368.400 309.943,368.400 309.600 C 368.400 309.257,368.760 308.717,369.200 308.400 C 369.640 308.083,370.000 307.671,370.000 307.484 C 370.000 307.297,370.540 306.359,371.200 305.400 C 371.860 304.441,372.400 303.463,372.400 303.228 C 372.400 302.993,372.580 302.800,372.800 302.800 C 373.020 302.800,373.200 302.603,373.200 302.362 C 373.200 302.121,373.561 301.416,374.003 300.795 C 374.445 300.175,374.918 299.112,375.053 298.434 C 375.189 297.755,375.457 297.200,375.650 297.200 C 375.843 297.200,376.003 296.795,376.006 296.300 C 376.011 295.572,376.086 295.515,376.400 296.000 C 376.694 296.455,376.789 296.286,376.794 295.300 C 376.797 294.585,376.980 294.000,377.200 294.000 C 377.420 294.000,377.600 293.640,377.600 293.200 C 377.600 292.760,377.780 292.400,378.000 292.400 C 378.220 292.400,378.400 292.119,378.400 291.776 C 378.400 291.433,378.550 291.245,378.732 291.358 C 378.915 291.471,379.309 290.942,379.607 290.182 C 379.905 289.422,380.296 288.800,380.475 288.800 C 380.654 288.800,380.800 288.440,380.800 288.000 C 380.800 287.560,380.980 287.200,381.200 287.200 C 381.420 287.200,381.600 286.630,381.600 285.933 C 381.600 285.237,381.717 284.784,381.861 284.927 C 382.197 285.264,383.200 283.337,383.200 282.354 C 383.200 281.939,383.380 281.600,383.600 281.600 C 383.820 281.600,384.000 281.100,384.000 280.488 C 384.000 279.835,384.330 279.139,384.800 278.800 C 385.270 278.461,385.600 277.765,385.600 277.112 C 385.600 276.500,385.780 276.000,386.000 276.000 C 386.220 276.000,386.400 275.651,386.400 275.224 C 386.400 274.797,386.580 274.336,386.800 274.200 C 387.020 274.064,387.200 273.603,387.200 273.176 C 387.200 272.749,387.380 272.400,387.600 272.400 C 387.820 272.400,388.000 271.986,388.000 271.480 C 388.000 270.974,388.179 270.381,388.398 270.162 C 388.616 269.944,388.836 269.278,388.885 268.682 C 388.934 268.087,389.115 267.600,389.287 267.600 C 389.459 267.600,389.600 267.049,389.600 266.376 C 389.600 265.663,389.767 265.256,390.000 265.400 C 390.226 265.540,390.400 265.212,390.400 264.647 C 390.400 264.097,390.559 263.549,390.753 263.429 C 390.947 263.309,391.231 262.039,391.385 260.606 C 391.538 259.173,391.829 258.000,392.032 258.000 C 392.234 258.000,392.400 257.565,392.400 257.033 C 392.400 256.502,392.580 256.007,392.799 255.933 C 393.019 255.860,393.228 255.035,393.265 254.100 C 393.301 253.165,393.482 252.400,393.666 252.400 C 393.850 252.400,394.000 251.770,394.000 251.000 C 394.000 250.230,394.180 249.600,394.400 249.600 C 394.620 249.600,394.800 249.060,394.800 248.400 C 394.800 247.740,394.980 247.200,395.200 247.200 C 395.422 247.200,395.600 246.133,395.600 244.800 C 395.600 243.467,395.778 242.400,396.000 242.400 C 396.220 242.400,396.400 241.961,396.400 241.424 C 396.400 240.887,396.580 240.336,396.800 240.200 C 397.020 240.064,397.200 238.693,397.200 237.153 C 397.200 235.388,397.348 234.444,397.600 234.600 C 397.851 234.755,398.000 233.871,398.000 232.224 C 398.000 230.741,398.174 229.600,398.400 229.600 C 398.620 229.600,398.800 228.625,398.800 227.433 C 398.800 226.056,398.982 225.206,399.300 225.100 C 399.693 224.969,399.800 219.591,399.800 200.000 C 399.800 180.409,399.693 175.031,399.300 174.900 C 398.982 174.794,398.800 173.944,398.800 172.567 C 398.800 171.375,398.620 170.400,398.400 170.400 C 398.178 170.400,398.000 169.333,398.000 168.000 C 398.000 166.667,397.822 165.600,397.600 165.600 C 397.372 165.600,397.200 164.408,397.200 162.824 C 397.200 161.297,397.020 159.936,396.800 159.800 C 396.580 159.664,396.400 159.113,396.400 158.576 C 396.400 158.039,396.220 157.600,396.000 157.600 C 395.778 157.600,395.600 156.533,395.600 155.200 C 395.600 153.867,395.422 152.800,395.200 152.800 C 394.980 152.800,394.800 152.350,394.800 151.800 C 394.800 151.250,394.620 150.800,394.400 150.800 C 394.180 150.800,394.000 150.080,394.000 149.200 C 394.000 148.320,393.820 147.600,393.600 147.600 C 393.380 147.600,393.200 147.409,393.200 147.176 C 393.200 146.943,393.425 146.880,393.700 147.035 C 394.100 147.261,394.100 147.210,393.700 146.779 C 393.425 146.482,393.200 145.736,393.200 145.120 C 393.200 144.504,393.020 144.000,392.800 144.000 C 392.580 144.000,392.400 143.539,392.400 142.976 C 392.400 142.413,392.245 142.049,392.055 142.166 C 391.865 142.284,391.609 141.279,391.487 139.934 C 391.365 138.588,391.056 137.358,390.799 137.199 C 390.542 137.040,390.347 136.796,390.366 136.655 C 390.523 135.480,390.330 134.396,390.000 134.600 C 389.767 134.744,389.600 134.337,389.600 133.624 C 389.600 132.951,389.459 132.400,389.287 132.400 C 389.115 132.400,388.934 131.913,388.885 131.318 C 388.836 130.722,388.616 130.056,388.398 129.838 C 388.179 129.619,388.000 129.026,388.000 128.520 C 388.000 128.014,387.820 127.600,387.600 127.600 C 387.380 127.600,387.200 127.229,387.200 126.776 C 387.200 126.323,387.020 126.064,386.800 126.200 C 386.567 126.344,386.400 125.937,386.400 125.224 C 386.400 124.551,386.220 124.000,386.000 124.000 C 385.780 124.000,385.600 123.539,385.600 122.976 C 385.600 122.396,385.427 122.060,385.200 122.200 C 384.964 122.346,384.797 121.903,384.794 121.124 C 384.789 120.122,384.693 119.946,384.400 120.400 C 384.106 120.855,384.011 120.686,384.006 119.700 C 384.003 118.985,383.820 118.400,383.600 118.400 C 383.380 118.400,383.200 118.128,383.200 117.795 C 383.200 117.462,383.037 116.877,382.837 116.495 C 382.637 116.113,382.036 114.857,381.500 113.704 C 380.964 112.551,380.445 111.688,380.347 111.787 C 380.248 111.885,380.140 111.598,380.106 111.149 C 380.072 110.700,379.675 110.012,379.222 109.619 C 378.770 109.227,378.400 108.612,378.400 108.253 C 378.400 107.894,378.220 107.600,378.000 107.600 C 377.780 107.600,377.600 107.240,377.600 106.800 C 377.600 106.360,377.420 106.000,377.200 106.000 C 376.980 106.000,376.800 105.526,376.800 104.947 C 376.800 104.368,376.433 103.576,375.985 103.187 C 375.536 102.798,375.088 102.057,374.989 101.541 C 374.889 101.025,374.626 100.542,374.404 100.468 C 374.182 100.394,373.996 100.033,373.991 99.667 C 373.986 99.300,373.630 98.550,373.200 98.000 C 372.770 97.450,372.414 96.685,372.409 96.300 C 372.404 95.915,372.220 95.600,372.000 95.600 C 371.780 95.600,371.600 95.330,371.600 95.000 C 371.600 94.670,371.420 94.400,371.200 94.400 C 370.980 94.400,370.800 94.142,370.800 93.827 C 370.800 93.512,370.440 93.140,370.000 93.000 C 369.560 92.860,369.200 92.398,369.200 91.973 C 369.200 91.548,369.020 91.200,368.800 91.200 C 368.580 91.200,368.400 90.912,368.400 90.560 C 368.400 90.209,367.860 89.417,367.200 88.800 C 366.540 88.183,366.000 87.391,366.000 87.040 C 366.000 86.688,365.820 86.400,365.600 86.400 C 365.380 86.400,365.200 86.080,365.200 85.688 C 365.200 85.297,364.840 84.717,364.400 84.400 C 363.960 84.083,363.600 83.575,363.600 83.272 C 363.600 82.969,363.060 82.217,362.400 81.600 C 361.740 80.983,361.200 80.263,361.200 80.000 C 361.200 79.737,360.660 79.017,360.000 78.400 C 359.340 77.783,358.800 77.087,358.800 76.853 C 358.800 76.618,358.170 75.797,357.400 75.027 C 356.630 74.257,356.000 73.465,356.000 73.267 C 356.000 73.069,355.010 71.877,353.800 70.618 C 352.590 69.358,351.600 68.160,351.600 67.956 C 351.600 67.751,349.485 65.515,346.900 62.989 C 344.315 60.462,342.020 58.205,341.800 57.973 C 338.452 54.446,332.247 48.400,331.976 48.400 C 331.781 48.400,330.813 47.592,329.826 46.605 C 328.839 45.618,327.803 44.763,327.523 44.705 C 327.243 44.647,326.429 44.015,325.714 43.300 C 324.999 42.585,324.231 42.000,324.007 42.000 C 323.783 42.000,323.600 41.820,323.600 41.600 C 323.600 41.380,323.402 41.200,323.160 41.200 C 322.919 41.200,322.217 40.660,321.600 40.000 C 320.983 39.340,320.263 38.800,320.000 38.800 C 319.737 38.800,319.017 38.260,318.400 37.600 C 317.783 36.940,317.031 36.400,316.728 36.400 C 316.425 36.400,315.917 36.040,315.600 35.600 C 315.283 35.160,314.703 34.800,314.312 34.800 C 313.920 34.800,313.600 34.620,313.600 34.400 C 313.600 34.180,313.312 34.000,312.960 34.000 C 312.609 34.000,311.817 33.460,311.200 32.800 C 310.583 32.140,309.831 31.600,309.528 31.600 C 309.225 31.600,308.717 31.240,308.400 30.800 C 308.083 30.360,307.593 30.000,307.312 30.000 C 307.030 30.000,306.800 29.820,306.800 29.600 C 306.800 29.380,306.564 29.200,306.275 29.200 C 305.987 29.200,305.364 28.840,304.892 28.400 C 304.420 27.960,303.767 27.600,303.440 27.600 C 303.114 27.600,302.748 27.440,302.627 27.244 C 302.304 26.721,298.516 24.800,297.807 24.800 C 297.473 24.800,297.200 24.620,297.200 24.400 C 297.200 24.180,296.795 23.997,296.300 23.994 C 295.572 23.989,295.515 23.914,296.000 23.600 C 296.455 23.306,296.286 23.211,295.300 23.206 C 294.585 23.203,294.000 23.020,294.000 22.800 C 294.000 22.580,293.640 22.400,293.200 22.400 C 292.760 22.400,292.400 22.220,292.400 22.000 C 292.400 21.780,292.083 21.600,291.696 21.600 C 291.309 21.600,290.768 21.240,290.493 20.800 C 290.218 20.360,289.725 20.000,289.397 20.000 C 289.068 20.000,288.800 19.820,288.800 19.600 C 288.800 19.380,288.326 19.200,287.747 19.200 C 287.167 19.200,286.358 18.813,285.947 18.339 C 285.536 17.865,285.200 17.692,285.200 17.954 C 285.200 18.220,284.813 18.070,284.325 17.616 C 283.835 17.160,282.904 16.800,282.213 16.800 C 281.440 16.800,280.763 16.503,280.406 16.009 C 279.987 15.427,279.754 15.348,279.524 15.709 C 279.279 16.094,279.211 16.092,279.206 15.700 C 279.203 15.425,278.829 15.200,278.376 15.200 C 277.923 15.200,277.664 15.020,277.800 14.800 C 277.940 14.573,277.604 14.400,277.024 14.400 C 276.461 14.400,276.000 14.220,276.000 14.000 C 276.000 13.780,275.415 13.597,274.700 13.594 C 273.714 13.589,273.545 13.494,274.000 13.200 C 274.468 12.898,274.357 12.811,273.500 12.806 C 272.895 12.803,272.400 12.620,272.400 12.400 C 272.400 12.180,271.986 12.000,271.480 12.000 C 270.974 12.000,270.345 11.785,270.082 11.522 C 269.712 11.152,269.626 53.409,269.702 199.622 " stroke="none" fill="#dc0424" fill-rule="evenodd"></path><path id="path1" d="M128.900 13.107 C 128.405 13.189,128.000 13.423,128.000 13.628 C 128.000 13.833,127.460 14.000,126.800 14.000 C 126.140 14.000,125.600 14.201,125.600 14.447 C 125.600 14.705,125.187 14.814,124.620 14.706 C 123.995 14.587,123.559 14.730,123.417 15.101 C 123.294 15.421,122.925 15.580,122.597 15.454 C 122.268 15.328,122.000 15.391,122.000 15.594 C 122.000 15.797,121.325 16.256,120.500 16.615 C 119.675 16.974,118.692 17.429,118.316 17.627 C 117.465 18.075,116.313 17.677,116.666 17.058 C 116.814 16.801,116.771 16.744,116.569 16.928 C 116.372 17.109,116.208 17.512,116.205 17.824 C 116.202 18.136,116.084 18.348,115.942 18.296 C 115.800 18.243,115.305 18.543,114.842 18.962 C 114.379 19.381,114.000 19.578,114.000 19.400 C 114.000 19.222,113.640 19.402,113.200 19.800 C 112.760 20.198,112.400 20.370,112.400 20.182 C 112.400 19.994,112.184 20.056,111.920 20.320 C 111.656 20.584,111.116 20.800,110.720 20.800 C 110.324 20.800,110.000 20.980,110.000 21.200 C 110.000 21.420,109.730 21.600,109.400 21.600 C 109.070 21.600,108.800 21.780,108.800 22.000 C 108.800 22.220,108.440 22.400,108.000 22.400 C 107.560 22.400,107.200 22.580,107.200 22.800 C 107.200 23.020,106.840 23.200,106.400 23.200 C 105.960 23.200,105.600 23.380,105.600 23.600 C 105.600 23.820,105.240 24.000,104.800 24.000 C 104.360 24.000,104.000 24.180,104.000 24.400 C 104.000 24.620,103.730 24.800,103.400 24.800 C 103.070 24.800,102.800 24.980,102.800 25.200 C 102.800 25.420,102.530 25.600,102.200 25.600 C 101.870 25.600,101.600 25.780,101.600 26.000 C 101.600 26.220,101.255 26.400,100.833 26.400 C 100.412 26.400,100.007 26.535,99.933 26.700 C 99.766 27.076,97.636 28.375,96.700 28.671 C 96.315 28.793,96.000 29.052,96.000 29.247 C 96.000 29.441,95.764 29.600,95.475 29.600 C 95.187 29.600,94.555 29.969,94.070 30.420 C 93.586 30.872,93.044 31.151,92.866 31.041 C 92.688 30.931,92.242 31.192,91.875 31.620 C 91.508 32.049,90.981 32.403,90.704 32.407 C 90.427 32.411,89.812 32.823,89.339 33.323 C 88.865 33.823,87.790 34.585,86.950 35.016 C 86.109 35.447,85.068 36.115,84.635 36.500 C 83.755 37.284,83.200 37.400,83.200 36.800 C 83.200 36.580,83.001 36.400,82.757 36.400 C 82.514 36.400,82.419 36.674,82.548 37.008 C 82.775 37.601,81.376 39.600,80.732 39.600 C 80.424 39.600,79.314 40.427,78.184 41.500 C 77.894 41.775,77.556 42.000,77.433 42.000 C 77.204 42.000,76.416 42.626,74.408 44.400 C 73.786 44.950,72.056 46.390,70.564 47.600 C 66.982 50.504,50.786 66.266,49.807 67.800 C 49.148 68.832,47.492 70.778,45.700 72.627 C 45.425 72.911,45.200 73.263,45.200 73.411 C 45.200 73.558,44.660 74.183,44.000 74.800 C 43.340 75.417,42.800 76.119,42.800 76.360 C 42.800 76.602,42.620 76.800,42.400 76.800 C 42.180 76.800,42.000 76.982,42.000 77.204 C 42.000 77.426,41.460 78.172,40.800 78.863 C 40.140 79.554,39.600 80.280,39.600 80.478 C 39.600 81.114,37.659 82.800,36.918 82.806 C 36.369 82.811,36.326 82.892,36.737 83.153 C 37.297 83.508,36.609 85.200,35.904 85.200 C 35.737 85.200,35.600 85.415,35.600 85.678 C 35.600 86.268,33.588 89.282,32.901 89.720 C 32.626 89.896,32.400 90.311,32.400 90.643 C 32.400 90.976,32.222 91.137,32.005 91.003 C 31.786 90.867,31.707 91.012,31.828 91.328 C 31.948 91.641,31.754 92.009,31.398 92.146 C 31.041 92.282,30.860 92.573,30.995 92.792 C 31.130 93.011,30.872 93.586,30.420 94.070 C 29.969 94.555,29.600 95.187,29.600 95.475 C 29.600 95.764,29.420 96.000,29.200 96.000 C 28.980 96.000,28.800 96.270,28.800 96.600 C 28.800 96.930,28.654 97.200,28.475 97.200 C 28.296 97.200,27.902 97.830,27.600 98.600 C 27.298 99.370,26.904 100.000,26.725 100.000 C 26.546 100.000,26.400 100.360,26.400 100.800 C 26.400 101.240,26.220 101.600,26.000 101.600 C 25.780 101.600,25.600 101.870,25.600 102.200 C 25.600 102.530,25.420 102.800,25.200 102.800 C 24.980 102.800,24.800 103.070,24.800 103.400 C 24.800 103.730,24.620 104.000,24.400 104.000 C 24.180 104.000,24.000 104.360,24.000 104.800 C 24.000 105.240,23.820 105.600,23.600 105.600 C 23.380 105.600,23.200 105.960,23.200 106.400 C 23.200 106.840,23.054 107.200,22.875 107.200 C 22.696 107.200,22.302 107.830,22.000 108.600 C 21.698 109.370,21.304 110.000,21.125 110.000 C 20.946 110.000,20.800 110.360,20.800 110.800 C 20.800 111.240,20.620 111.600,20.400 111.600 C 20.180 111.600,20.000 111.865,20.000 112.188 C 20.000 112.511,19.643 113.411,19.207 114.188 C 18.771 114.965,18.546 115.606,18.707 115.613 C 18.868 115.620,18.667 115.878,18.260 116.186 C 17.853 116.494,17.630 116.924,17.764 117.141 C 17.898 117.358,17.766 117.777,17.472 118.071 C 17.177 118.366,17.005 118.814,17.089 119.067 C 17.173 119.320,17.053 119.644,16.821 119.787 C 16.590 119.930,16.400 120.402,16.400 120.836 C 16.400 121.270,16.141 121.724,15.825 121.846 C 15.509 121.967,15.348 122.320,15.467 122.630 C 15.586 122.940,15.421 123.294,15.101 123.417 C 14.730 123.559,14.587 123.995,14.706 124.620 C 14.814 125.187,14.705 125.600,14.447 125.600 C 14.201 125.600,14.000 126.050,14.000 126.600 C 14.000 127.150,13.820 127.600,13.600 127.600 C 13.380 127.600,13.200 128.050,13.200 128.600 C 13.200 129.150,13.020 129.600,12.800 129.600 C 12.580 129.600,12.400 130.039,12.400 130.576 C 12.400 131.113,12.220 131.664,12.000 131.800 C 11.780 131.936,11.600 132.487,11.600 133.024 C 11.600 133.561,11.420 134.000,11.200 134.000 C 10.980 134.000,10.800 134.540,10.800 135.200 C 10.800 135.860,10.620 136.400,10.400 136.400 C 10.180 136.400,10.000 136.940,10.000 137.600 C 10.000 138.260,9.820 138.800,9.600 138.800 C 9.380 138.800,9.200 139.340,9.200 140.000 C 9.200 140.660,9.020 141.200,8.800 141.200 C 8.580 141.200,8.400 141.740,8.400 142.400 C 8.400 143.060,8.220 143.600,8.000 143.600 C 7.780 143.600,7.600 144.230,7.600 145.000 C 7.600 145.869,7.406 146.400,7.089 146.400 C 6.735 146.400,6.626 146.889,6.731 148.000 C 6.826 148.993,6.716 149.600,6.442 149.600 C 6.199 149.600,6.000 150.230,6.000 151.000 C 6.000 151.770,5.820 152.400,5.600 152.400 C 5.380 152.400,5.200 153.210,5.200 154.200 C 5.200 155.190,5.020 156.000,4.800 156.000 C 4.580 156.000,4.400 156.810,4.400 157.800 C 4.400 159.073,4.237 159.600,3.842 159.600 C 3.422 159.600,3.353 159.922,3.562 160.900 C 3.879 162.381,3.709 163.600,3.186 163.600 C 2.991 163.600,2.869 164.480,2.916 165.555 C 2.987 167.199,2.841 167.649,2.000 168.385 C 1.450 168.867,1.205 169.159,1.456 169.034 C 1.734 168.896,2.013 169.344,2.170 170.180 C 2.450 171.676,2.115 173.600,1.574 173.600 C 1.387 173.600,1.271 175.045,1.317 176.812 C 1.379 179.207,1.257 180.113,0.838 180.374 C 0.484 180.594,0.327 181.219,0.415 182.062 C 0.491 182.798,0.501 185.020,0.436 187.000 C 0.306 191.032,0.309 206.757,0.442 214.400 C 0.496 217.466,0.698 219.511,0.965 219.688 C 1.225 219.859,1.378 221.227,1.345 223.088 C 1.311 225.034,1.461 226.308,1.745 226.487 C 2.020 226.660,2.171 227.766,2.127 229.280 C 2.081 230.851,2.230 231.895,2.527 232.079 C 2.810 232.254,2.966 233.181,2.916 234.386 C 2.869 235.494,2.991 236.400,3.186 236.400 C 3.709 236.400,3.879 237.619,3.562 239.100 C 3.346 240.111,3.417 240.400,3.882 240.400 C 4.346 240.400,4.448 240.805,4.337 242.200 C 4.238 243.455,4.347 244.000,4.697 244.000 C 5.026 244.000,5.200 244.621,5.200 245.800 C 5.200 246.790,5.380 247.600,5.600 247.600 C 5.820 247.600,6.000 248.230,6.000 249.000 C 6.000 249.770,6.180 250.400,6.400 250.400 C 6.620 250.400,6.800 251.120,6.800 252.000 C 6.800 252.880,6.980 253.600,7.200 253.600 C 7.420 253.600,7.600 254.230,7.600 255.000 C 7.600 255.770,7.780 256.400,8.000 256.400 C 8.220 256.400,8.400 256.940,8.400 257.600 C 8.400 258.260,8.580 258.800,8.800 258.800 C 9.020 258.800,9.200 259.340,9.200 260.000 C 9.200 260.660,9.380 261.200,9.600 261.200 C 9.820 261.200,10.000 261.740,10.000 262.400 C 10.000 263.060,10.180 263.600,10.400 263.600 C 10.620 263.600,10.800 264.140,10.800 264.800 C 10.800 265.460,10.980 266.000,11.200 266.000 C 11.420 266.000,11.600 266.439,11.600 266.976 C 11.600 267.513,11.780 268.064,12.000 268.200 C 12.220 268.336,12.400 268.887,12.400 269.424 C 12.400 269.961,12.580 270.400,12.800 270.400 C 13.020 270.400,13.200 270.850,13.200 271.400 C 13.200 271.950,13.380 272.400,13.600 272.400 C 13.820 272.400,14.000 272.850,14.000 273.400 C 14.000 273.950,14.201 274.400,14.447 274.400 C 14.705 274.400,14.814 274.813,14.706 275.380 C 14.587 276.005,14.730 276.441,15.101 276.583 C 15.421 276.706,15.586 277.060,15.467 277.370 C 15.348 277.680,15.509 278.033,15.825 278.154 C 16.141 278.276,16.400 278.618,16.400 278.916 C 16.400 279.214,16.740 280.156,17.156 281.011 C 17.572 281.866,17.831 282.775,17.733 283.031 C 17.634 283.287,17.831 283.603,18.170 283.733 C 18.509 283.863,18.689 284.223,18.570 284.533 C 18.451 284.843,18.631 285.203,18.970 285.333 C 19.326 285.470,19.487 285.829,19.350 286.185 C 19.221 286.523,19.314 286.800,19.557 286.800 C 19.801 286.800,20.000 287.160,20.000 287.600 C 20.000 288.040,20.180 288.400,20.400 288.400 C 20.620 288.400,20.800 288.760,20.800 289.200 C 20.800 289.640,20.946 290.000,21.125 290.000 C 21.304 290.000,21.698 290.630,22.000 291.400 C 22.302 292.170,22.696 292.800,22.875 292.800 C 23.054 292.800,23.200 293.160,23.200 293.600 C 23.200 294.040,23.380 294.400,23.600 294.400 C 23.820 294.400,24.000 294.760,24.000 295.200 C 24.000 295.640,24.180 296.000,24.400 296.000 C 24.620 296.000,24.800 296.270,24.800 296.600 C 24.800 296.930,24.980 297.200,25.200 297.200 C 25.420 297.200,25.600 297.560,25.600 298.000 C 25.600 298.440,25.780 298.800,26.000 298.800 C 26.220 298.800,26.400 299.070,26.400 299.400 C 26.400 299.730,26.580 300.000,26.800 300.000 C 27.020 300.000,27.200 300.360,27.200 300.800 C 27.200 301.240,27.380 301.600,27.600 301.600 C 27.820 301.600,28.000 301.870,28.000 302.200 C 28.000 302.530,28.180 302.800,28.400 302.800 C 28.620 302.800,28.800 303.070,28.800 303.400 C 28.800 303.730,28.980 304.000,29.200 304.000 C 29.420 304.000,29.600 304.236,29.600 304.525 C 29.600 304.813,29.969 305.445,30.420 305.930 C 30.872 306.414,31.151 306.956,31.041 307.134 C 30.931 307.312,31.192 307.758,31.620 308.125 C 32.049 308.492,32.400 309.055,32.400 309.376 C 32.400 309.697,32.626 310.104,32.901 310.280 C 33.470 310.643,35.600 313.688,35.600 314.138 C 35.600 314.301,35.960 314.820,36.400 315.292 C 37.284 316.241,37.424 316.800,36.776 316.800 C 36.543 316.800,36.466 316.983,36.604 317.207 C 36.742 317.430,37.021 317.510,37.224 317.385 C 37.619 317.141,39.600 318.923,39.600 319.522 C 39.600 319.720,40.095 320.416,40.700 321.070 C 42.480 322.994,42.977 324.033,42.337 324.491 C 41.937 324.777,41.985 324.816,42.522 324.642 C 43.209 324.419,45.188 325.922,45.209 326.682 C 45.214 326.857,46.204 328.052,47.409 329.337 C 48.614 330.622,49.600 331.827,49.600 332.014 C 49.600 332.448,67.629 350.400,68.065 350.400 C 68.369 350.400,70.961 352.582,74.507 355.823 C 75.335 356.580,76.203 357.200,76.434 357.200 C 76.672 357.200,76.744 357.547,76.600 358.000 C 76.329 358.855,77.011 359.142,77.313 358.300 C 77.435 357.961,77.750 358.090,78.293 358.700 C 78.733 359.195,79.298 359.600,79.547 359.600 C 79.796 359.600,80.000 359.780,80.000 360.000 C 80.000 360.220,80.188 360.400,80.418 360.400 C 81.090 360.400,82.797 362.298,82.832 363.082 C 82.850 363.501,82.947 363.592,83.065 363.300 C 83.338 362.624,83.704 362.670,84.635 363.500 C 85.068 363.885,86.137 364.558,87.011 364.994 C 87.885 365.431,88.891 366.106,89.247 366.494 C 89.603 366.883,90.188 367.200,90.547 367.200 C 90.906 367.200,91.200 367.350,91.200 367.532 C 91.200 367.715,91.695 368.120,92.300 368.432 C 92.905 368.745,93.749 369.315,94.175 369.700 C 94.602 370.085,95.172 370.400,95.442 370.400 C 95.712 370.400,95.993 370.535,96.067 370.700 C 96.234 371.076,98.364 372.375,99.300 372.671 C 99.685 372.793,100.000 373.052,100.000 373.247 C 100.000 373.441,100.278 373.600,100.617 373.600 C 100.956 373.600,101.620 373.960,102.092 374.400 C 102.564 374.840,103.277 375.200,103.675 375.200 C 104.074 375.200,104.400 375.380,104.400 375.600 C 104.400 375.820,104.670 376.000,105.000 376.000 C 105.330 376.000,105.600 376.180,105.600 376.400 C 105.600 376.620,105.960 376.800,106.400 376.800 C 106.840 376.800,107.200 376.980,107.200 377.200 C 107.200 377.420,107.560 377.600,108.000 377.600 C 108.440 377.600,108.800 377.780,108.800 378.000 C 108.800 378.220,109.070 378.400,109.400 378.400 C 109.730 378.400,110.000 378.580,110.000 378.800 C 110.000 379.020,110.349 379.200,110.776 379.200 C 111.203 379.200,111.666 379.383,111.804 379.607 C 111.942 379.830,112.202 379.922,112.382 379.811 C 112.562 379.700,112.932 379.877,113.204 380.204 C 113.476 380.532,113.965 380.800,114.292 380.800 C 114.650 380.800,114.796 381.033,114.660 381.387 C 114.536 381.710,114.635 382.098,114.879 382.249 C 115.148 382.415,115.211 382.341,115.038 382.062 C 114.858 381.770,115.056 381.600,115.576 381.600 C 116.029 381.600,116.400 381.780,116.400 382.000 C 116.400 382.220,116.755 382.400,117.188 382.400 C 117.621 382.400,118.566 382.731,119.288 383.135 C 120.010 383.539,120.825 383.794,121.100 383.702 C 121.375 383.609,121.705 383.807,121.833 384.141 C 121.961 384.476,122.320 384.652,122.630 384.533 C 122.940 384.414,123.294 384.579,123.417 384.899 C 123.559 385.270,123.995 385.413,124.620 385.294 C 125.187 385.186,125.600 385.295,125.600 385.553 C 125.600 385.799,126.039 386.000,126.576 386.000 C 127.113 386.000,127.664 386.180,127.800 386.400 C 127.936 386.620,128.397 386.800,128.824 386.800 C 129.251 386.800,129.603 387.025,129.606 387.300 C 129.610 387.633,129.742 387.600,130.000 387.200 C 130.462 386.485,130.562 13.325,130.100 13.103 C 129.935 13.024,129.395 13.026,128.900 13.107 M48.672 332.200 C 48.981 333.072,50.005 334.260,49.991 333.729 C 49.986 333.548,49.624 332.950,49.186 332.400 C 48.552 331.604,48.447 331.563,48.672 332.200 " stroke="none" fill="#0454b4" fill-rule="evenodd"></path><path id="path2" d="M178.300 0.275 C 176.375 0.361,174.800 0.604,174.800 0.816 C 174.800 1.027,173.461 1.200,171.824 1.200 C 170.187 1.200,168.736 1.380,168.600 1.600 C 168.464 1.820,167.564 2.000,166.600 2.000 C 165.636 2.000,164.736 2.180,164.600 2.400 C 164.464 2.620,163.373 2.800,162.176 2.800 C 160.979 2.800,160.000 2.980,160.000 3.200 C 160.000 3.420,159.201 3.600,158.224 3.600 C 157.247 3.600,156.336 3.780,156.200 4.000 C 156.064 4.220,155.243 4.400,154.376 4.400 C 153.509 4.400,152.800 4.580,152.800 4.800 C 152.800 5.020,152.095 5.200,151.233 5.200 C 150.372 5.200,149.607 5.372,149.533 5.582 C 149.460 5.793,148.737 6.009,147.926 6.063 C 147.115 6.116,146.541 6.304,146.649 6.480 C 146.758 6.656,146.207 6.800,145.424 6.800 C 144.641 6.800,144.000 6.980,144.000 7.200 C 144.000 7.420,143.370 7.600,142.600 7.600 C 141.830 7.600,141.200 7.780,141.200 8.000 C 141.200 8.220,140.771 8.400,140.246 8.400 C 139.222 8.400,135.447 9.440,134.305 10.037 C 133.923 10.237,133.450 10.400,133.254 10.400 C 132.123 10.400,129.929 11.689,130.347 12.107 C 130.950 12.710,131.003 387.428,130.400 387.800 C 129.666 388.254,129.988 388.698,131.232 388.946 C 131.909 389.082,133.034 389.442,133.732 389.747 C 135.704 390.608,139.191 391.600,140.246 391.600 C 140.771 391.600,141.200 391.780,141.200 392.000 C 141.200 392.220,141.830 392.400,142.600 392.400 C 143.370 392.400,144.000 392.580,144.000 392.800 C 144.000 393.020,144.529 393.200,145.176 393.200 C 145.823 393.200,146.464 393.380,146.600 393.600 C 146.736 393.820,147.567 394.000,148.447 394.000 C 149.412 394.000,149.949 394.159,149.800 394.400 C 149.651 394.641,150.188 394.800,151.153 394.800 C 152.033 394.800,152.864 394.980,153.000 395.200 C 153.136 395.420,153.856 395.600,154.600 395.600 C 155.344 395.600,156.064 395.780,156.200 396.000 C 156.336 396.220,157.247 396.400,158.224 396.400 C 159.201 396.400,160.000 396.580,160.000 396.800 C 160.000 397.020,160.979 397.200,162.176 397.200 C 163.373 397.200,164.464 397.380,164.600 397.600 C 164.736 397.820,165.726 398.000,166.800 398.000 C 167.874 398.000,168.864 398.180,169.000 398.400 C 169.136 398.620,170.482 398.800,171.990 398.800 C 173.829 398.800,174.788 398.965,174.900 399.300 C 175.144 400.032,224.856 400.032,225.100 399.300 C 225.212 398.965,226.171 398.800,228.010 398.800 C 229.518 398.800,230.864 398.620,231.000 398.400 C 231.136 398.180,232.216 398.000,233.400 398.000 C 234.584 398.000,235.664 397.820,235.800 397.600 C 235.936 397.380,236.937 397.200,238.024 397.200 C 239.111 397.200,240.000 397.020,240.000 396.800 C 240.000 396.580,240.684 396.400,241.520 396.400 C 242.356 396.400,243.211 396.230,243.420 396.021 C 243.629 395.813,244.565 395.598,245.500 395.543 C 246.435 395.488,247.200 395.299,247.200 395.122 C 247.200 394.945,247.920 394.800,248.800 394.800 C 249.680 394.800,250.400 394.620,250.400 394.400 C 250.400 394.180,251.019 394.000,251.776 394.000 C 252.533 394.000,253.264 393.820,253.400 393.600 C 253.536 393.380,254.177 393.200,254.824 393.200 C 255.471 393.200,256.000 393.020,256.000 392.800 C 256.000 392.580,256.630 392.400,257.400 392.400 C 258.170 392.400,258.800 392.241,258.800 392.046 C 258.800 391.851,259.787 391.569,260.994 391.418 C 262.200 391.267,263.291 390.977,263.417 390.772 C 263.544 390.567,264.076 390.400,264.600 390.400 C 265.124 390.400,265.664 390.220,265.800 390.000 C 265.936 389.780,266.376 389.600,266.778 389.600 C 267.180 389.600,267.980 389.356,268.555 389.057 L 269.602 388.514 269.605 199.957 C 269.607 11.415,269.607 11.400,268.804 11.272 C 268.362 11.202,268.000 10.977,268.000 10.772 C 268.000 10.567,267.638 10.400,267.195 10.400 C 266.752 10.400,266.077 10.237,265.695 10.037 C 264.553 9.440,260.778 8.400,259.754 8.400 C 259.229 8.400,258.800 8.220,258.800 8.000 C 258.800 7.780,258.181 7.600,257.424 7.600 C 256.667 7.600,255.936 7.420,255.800 7.200 C 255.664 6.980,255.113 6.800,254.576 6.800 C 254.039 6.800,253.600 6.620,253.600 6.400 C 253.600 6.180,252.880 6.000,252.000 6.000 C 251.120 6.000,250.400 5.820,250.400 5.600 C 250.400 5.380,249.680 5.200,248.800 5.200 C 247.920 5.200,247.200 5.020,247.200 4.800 C 247.200 4.580,246.491 4.400,245.624 4.400 C 244.757 4.400,243.936 4.220,243.800 4.000 C 243.664 3.780,242.753 3.600,241.776 3.600 C 240.799 3.600,240.000 3.420,240.000 3.200 C 240.000 2.980,239.100 2.800,238.000 2.800 C 236.900 2.800,236.000 2.620,236.000 2.400 C 236.000 2.178,234.941 2.000,233.624 2.000 C 232.317 2.000,231.136 1.820,231.000 1.600 C 230.864 1.380,229.518 1.200,228.010 1.200 C 226.193 1.200,225.211 1.034,225.103 0.708 C 224.941 0.222,187.291 -0.126,178.300 0.275 " stroke="none" fill="#f4f4f4" fill-rule="evenodd"></path><path id="path3" d="M128.800 12.371 C 128.800 12.607,128.440 12.800,128.000 12.800 C 127.560 12.800,127.200 12.980,127.200 13.200 C 127.200 13.420,126.435 13.614,125.500 13.632 C 124.565 13.649,124.045 13.761,124.345 13.880 C 124.806 14.063,124.806 14.151,124.345 14.442 C 123.945 14.696,124.039 14.789,124.700 14.794 C 125.195 14.797,125.600 14.620,125.600 14.400 C 125.600 14.180,126.125 14.000,126.767 14.000 C 127.408 14.000,127.993 13.822,128.067 13.603 C 128.140 13.385,128.697 13.166,129.304 13.116 C 129.911 13.066,130.346 12.839,130.271 12.612 C 130.083 12.048,128.800 11.837,128.800 12.371 M122.400 15.033 C 122.400 15.382,122.614 15.595,122.875 15.508 C 123.617 15.261,123.740 14.400,123.033 14.400 C 122.685 14.400,122.400 14.685,122.400 15.033 M121.200 15.600 C 121.200 15.820,120.750 16.000,120.200 16.000 C 119.650 16.000,119.200 16.180,119.200 16.400 C 119.200 16.620,118.859 16.800,118.443 16.800 C 118.026 16.800,117.582 17.070,117.455 17.400 C 117.188 18.096,117.347 18.139,118.305 17.634 C 118.687 17.432,119.675 16.974,120.500 16.615 C 121.893 16.009,122.522 15.200,121.600 15.200 C 121.380 15.200,121.200 15.380,121.200 15.600 M115.196 18.196 C 115.696 18.798,116.400 18.669,116.400 17.976 C 116.400 17.769,116.018 17.600,115.551 17.600 C 114.845 17.600,114.785 17.700,115.196 18.196 M111.046 19.824 C 110.730 20.648,111.060 21.100,111.590 20.570 C 111.797 20.363,111.819 19.955,111.639 19.663 C 111.382 19.246,111.255 19.281,111.046 19.824 M112.400 19.849 C 112.400 20.380,112.509 20.408,113.000 20.000 C 113.330 19.726,113.600 19.434,113.600 19.351 C 113.600 19.268,113.330 19.200,113.000 19.200 C 112.670 19.200,112.400 19.492,112.400 19.849 M105.800 22.800 C 105.936 23.020,106.307 23.200,106.624 23.200 C 106.941 23.200,107.200 23.020,107.200 22.800 C 107.200 22.580,106.829 22.400,106.376 22.400 C 105.923 22.400,105.664 22.580,105.800 22.800 M102.460 24.642 C 102.162 24.978,102.052 25.376,102.214 25.526 C 102.377 25.677,102.590 25.575,102.688 25.300 C 102.786 25.025,103.122 24.800,103.433 24.800 C 103.745 24.800,104.000 24.620,104.000 24.400 C 104.000 23.801,103.074 23.946,102.460 24.642 M100.533 25.867 C 100.533 26.160,100.773 26.400,101.067 26.400 C 101.360 26.400,101.600 26.160,101.600 25.867 C 101.600 25.573,101.360 25.333,101.067 25.333 C 100.773 25.333,100.533 25.573,100.533 25.867 M98.996 26.807 C 98.858 27.030,98.577 27.109,98.372 26.983 C 98.168 26.856,98.000 26.943,98.000 27.176 C 98.000 27.409,97.640 27.600,97.200 27.600 C 96.760 27.600,96.400 27.791,96.400 28.024 C 96.400 28.257,96.240 28.349,96.045 28.228 C 95.850 28.107,95.468 28.277,95.196 28.604 C 94.924 28.932,94.537 29.200,94.335 29.200 C 93.898 29.200,91.458 30.870,91.267 31.300 C 91.193 31.465,90.900 31.600,90.615 31.600 C 90.330 31.600,89.355 32.320,88.448 33.200 C 87.541 34.080,86.484 34.800,86.100 34.800 C 85.417 34.801,83.200 36.442,83.200 36.947 C 83.200 37.408,83.838 37.210,84.635 36.500 C 85.068 36.115,86.109 35.447,86.950 35.016 C 87.790 34.585,88.865 33.823,89.339 33.323 C 89.812 32.823,90.427 32.411,90.704 32.407 C 90.981 32.403,91.508 32.049,91.875 31.620 C 92.242 31.192,92.688 30.931,92.866 31.041 C 93.044 31.151,93.586 30.872,94.070 30.420 C 94.555 29.969,95.172 29.600,95.442 29.600 C 95.712 29.600,95.993 29.465,96.067 29.300 C 96.234 28.924,98.364 27.625,99.300 27.329 C 99.685 27.207,100.000 26.948,100.000 26.753 C 100.000 26.270,99.305 26.307,98.996 26.807 M81.100 38.093 C 80.334 39.045,80.206 39.600,80.751 39.600 C 81.329 39.600,82.076 38.482,81.933 37.830 C 81.827 37.348,81.656 37.402,81.100 38.093 M77.217 41.076 C 76.456 41.804,75.680 42.400,75.493 42.400 C 75.306 42.400,75.264 42.580,75.400 42.800 C 75.536 43.020,75.277 43.200,74.824 43.200 C 74.371 43.200,74.000 43.380,74.000 43.600 C 74.000 43.820,73.700 44.000,73.333 44.000 C 72.967 44.000,72.778 44.111,72.914 44.248 C 73.226 44.560,72.213 45.600,71.597 45.600 C 71.344 45.600,70.446 46.320,69.600 47.200 C 68.754 48.080,67.779 48.800,67.431 48.800 C 66.863 48.800,66.621 49.264,66.753 50.100 C 66.779 50.265,66.440 50.400,66.000 50.400 C 65.539 50.400,65.200 50.667,65.200 51.029 C 65.200 51.932,64.127 52.949,63.864 52.296 C 63.753 52.023,63.649 52.216,63.632 52.724 C 63.614 53.232,63.420 53.536,63.200 53.400 C 62.980 53.264,62.800 53.444,62.800 53.800 C 62.800 54.156,62.622 54.337,62.405 54.203 C 62.188 54.069,61.243 54.797,60.305 55.821 C 59.367 56.845,58.163 58.070,57.629 58.542 C 55.760 60.194,53.206 62.940,53.378 63.111 C 53.620 63.353,51.726 65.200,51.236 65.200 C 50.732 65.200,49.040 66.928,48.881 67.606 C 48.815 67.886,48.230 68.611,47.581 69.218 C 46.931 69.825,46.397 70.654,46.394 71.060 C 46.389 71.684,46.327 71.706,46.000 71.200 C 45.617 70.607,45.389 71.065,45.553 72.100 C 45.579 72.265,45.319 72.400,44.976 72.400 C 44.633 72.400,44.456 72.568,44.583 72.773 C 44.710 72.978,44.487 73.383,44.089 73.673 C 43.690 73.963,42.832 74.920,42.182 75.800 C 41.532 76.680,40.775 77.638,40.500 77.929 C 40.225 78.219,40.000 78.631,40.000 78.844 C 40.000 79.057,39.280 79.958,38.400 80.847 C 36.611 82.655,36.538 82.800,37.424 82.800 C 37.767 82.800,37.936 82.620,37.800 82.400 C 37.664 82.180,37.756 82.000,38.005 82.000 C 38.549 82.000,39.600 81.004,39.600 80.488 C 39.600 80.285,40.140 79.554,40.800 78.863 C 41.460 78.172,42.000 77.426,42.000 77.204 C 42.000 76.982,42.180 76.800,42.400 76.800 C 42.620 76.800,42.800 76.602,42.800 76.360 C 42.800 76.119,43.340 75.417,44.000 74.800 C 44.660 74.183,45.200 73.563,45.200 73.422 C 45.200 73.208,46.689 71.478,48.622 69.444 C 48.855 69.200,49.389 68.460,49.809 67.800 C 50.784 66.269,66.976 50.509,70.564 47.600 C 72.056 46.390,73.786 44.950,74.408 44.400 C 76.394 42.645,77.204 42.000,77.421 42.000 C 77.962 42.000,79.127 40.534,78.879 40.166 C 78.710 39.915,78.054 40.274,77.217 41.076 M35.705 84.308 C 35.213 84.908,34.808 85.625,34.805 85.900 C 34.802 86.175,34.620 86.400,34.400 86.400 C 34.180 86.400,34.000 86.672,34.000 87.004 C 34.000 87.336,33.454 88.179,32.786 88.878 C 32.118 89.577,31.662 90.385,31.773 90.674 C 31.884 90.963,31.749 91.200,31.472 91.200 C 30.996 91.200,28.058 95.605,28.326 95.915 C 28.396 95.995,28.053 96.407,27.565 96.830 C 27.048 97.279,26.896 97.600,27.201 97.600 C 27.581 97.600,27.543 97.800,27.062 98.331 C 26.361 99.106,26.181 100.000,26.725 100.000 C 26.904 100.000,27.298 99.370,27.600 98.600 C 27.902 97.830,28.296 97.200,28.475 97.200 C 28.654 97.200,28.800 96.930,28.800 96.600 C 28.800 96.270,28.980 96.000,29.200 96.000 C 29.420 96.000,29.600 95.764,29.600 95.475 C 29.600 95.187,29.969 94.555,30.420 94.070 C 30.872 93.586,31.151 93.044,31.041 92.866 C 30.931 92.688,31.192 92.242,31.620 91.875 C 32.049 91.508,32.400 90.945,32.400 90.624 C 32.400 90.303,32.626 89.896,32.901 89.720 C 33.470 89.357,35.600 86.312,35.600 85.862 C 35.600 85.699,35.960 85.180,36.400 84.708 C 36.840 84.236,37.200 83.703,37.200 83.525 C 37.200 82.905,36.595 83.222,35.705 84.308 M25.455 101.000 C 25.582 101.330,25.846 101.600,26.043 101.600 C 26.239 101.600,26.400 101.330,26.400 101.000 C 26.400 100.670,26.136 100.400,25.813 100.400 C 25.455 100.400,25.315 100.635,25.455 101.000 M24.500 102.598 C 23.899 103.281,23.848 104.000,24.400 104.000 C 24.620 104.000,24.800 103.730,24.800 103.400 C 24.800 103.070,24.980 102.800,25.200 102.800 C 25.420 102.800,25.600 102.620,25.600 102.400 C 25.600 101.837,25.089 101.929,24.500 102.598 M22.400 106.600 C 22.400 106.930,22.580 107.200,22.800 107.200 C 23.020 107.200,23.200 106.930,23.200 106.600 C 23.200 106.270,23.020 106.000,22.800 106.000 C 22.580 106.000,22.400 106.270,22.400 106.600 M20.006 110.467 C 20.003 110.833,19.775 111.224,19.500 111.335 C 19.225 111.446,19.405 111.551,19.900 111.568 C 20.879 111.603,20.998 111.325,20.400 110.400 C 20.065 109.881,20.011 109.890,20.006 110.467 M19.017 112.772 C 18.744 113.214,19.375 113.692,19.744 113.322 C 20.125 112.942,20.054 112.400,19.624 112.400 C 19.417 112.400,19.144 112.568,19.017 112.772 M17.600 115.584 C 17.600 116.033,17.769 116.400,17.976 116.400 C 18.639 116.400,18.734 115.816,18.158 115.284 C 17.694 114.856,17.600 114.907,17.600 115.584 M16.800 117.600 C 16.800 118.040,16.961 118.400,17.157 118.400 C 17.607 118.400,18.026 117.360,17.706 117.039 C 17.224 116.558,16.800 116.820,16.800 117.600 M16.500 119.088 C 16.225 119.186,16.000 119.612,16.000 120.033 C 16.000 120.455,15.820 120.800,15.600 120.800 C 15.380 120.800,15.200 121.070,15.200 121.400 C 15.200 122.230,15.977 122.155,16.242 121.300 C 16.361 120.915,16.638 120.267,16.857 119.861 C 17.309 119.023,17.220 118.831,16.500 119.088 M14.400 123.033 C 14.400 123.740,15.261 123.617,15.508 122.875 C 15.595 122.614,15.382 122.400,15.033 122.400 C 14.685 122.400,14.400 122.685,14.400 123.033 M14.100 124.622 C 13.825 124.922,13.600 125.444,13.600 125.783 C 13.600 126.122,13.465 126.401,13.300 126.403 C 12.859 126.408,12.000 128.419,12.000 129.446 C 12.000 129.934,11.797 130.401,11.550 130.483 C 11.303 130.566,11.100 131.118,11.100 131.709 C 11.100 132.301,10.943 132.688,10.750 132.569 C 10.558 132.450,10.400 133.004,10.400 133.800 C 10.400 134.663,10.239 135.147,10.000 135.000 C 9.774 134.860,9.600 135.192,9.600 135.764 C 9.600 136.498,9.764 136.712,10.200 136.545 C 10.542 136.413,10.800 135.817,10.800 135.157 C 10.800 134.521,10.980 134.000,11.200 134.000 C 11.420 134.000,11.600 133.561,11.600 133.024 C 11.600 132.487,11.780 131.936,12.000 131.800 C 12.220 131.664,12.400 131.113,12.400 130.576 C 12.400 130.039,12.580 129.600,12.800 129.600 C 13.020 129.600,13.200 129.150,13.200 128.600 C 13.200 128.050,13.380 127.600,13.600 127.600 C 13.820 127.600,14.000 127.165,14.000 126.633 C 14.000 126.102,14.201 125.600,14.446 125.518 C 14.691 125.436,14.826 125.079,14.746 124.724 C 14.624 124.184,14.519 124.167,14.100 124.622 M9.067 137.467 C 8.579 137.954,8.791 138.800,9.400 138.800 C 9.733 138.800,10.000 138.444,10.000 138.000 C 10.000 137.203,9.574 136.960,9.067 137.467 M8.612 140.117 C 8.441 140.512,8.413 140.947,8.551 141.084 C 8.957 141.490,9.284 140.920,9.097 140.131 C 8.932 139.433,8.910 139.432,8.612 140.117 M6.800 145.800 C 6.800 146.130,6.980 146.400,7.200 146.400 C 7.420 146.400,7.600 146.130,7.600 145.800 C 7.600 145.470,7.420 145.200,7.200 145.200 C 6.980 145.200,6.800 145.470,6.800 145.800 M6.000 148.800 C 6.000 149.240,6.180 149.600,6.400 149.600 C 6.620 149.600,6.800 149.240,6.800 148.800 C 6.800 148.360,6.620 148.000,6.400 148.000 C 6.180 148.000,6.000 148.360,6.000 148.800 M5.200 151.800 C 5.200 152.130,5.380 152.400,5.600 152.400 C 5.820 152.400,6.000 152.130,6.000 151.800 C 6.000 151.470,5.820 151.200,5.600 151.200 C 5.380 151.200,5.200 151.470,5.200 151.800 M4.400 155.200 C 4.400 155.640,4.580 156.000,4.800 156.000 C 5.020 156.000,5.200 155.640,5.200 155.200 C 5.200 154.760,5.020 154.400,4.800 154.400 C 4.580 154.400,4.400 154.760,4.400 155.200 M3.600 158.576 C 3.600 159.139,3.780 159.600,4.000 159.600 C 4.220 159.600,4.400 159.251,4.400 158.824 C 4.400 158.397,4.220 157.936,4.000 157.800 C 3.773 157.660,3.600 157.996,3.600 158.576 M2.800 162.400 C 2.800 163.701,3.394 164.035,3.688 162.900 C 3.912 162.035,3.656 161.200,3.167 161.200 C 2.965 161.200,2.800 161.740,2.800 162.400 M2.500 165.888 C 1.935 166.090,1.806 168.000,2.357 168.000 C 2.691 168.000,3.379 166.021,3.119 165.808 C 3.054 165.754,2.775 165.790,2.500 165.888 M1.673 170.887 C 1.109 171.451,1.036 173.600,1.582 173.600 C 1.974 173.600,2.636 170.902,2.321 170.588 C 2.225 170.492,1.934 170.626,1.673 170.887 M0.400 178.167 C 0.400 180.636,1.020 181.167,1.419 179.040 C 1.735 177.352,1.553 176.317,0.900 176.100 C 0.540 175.980,0.400 176.558,0.400 178.167 M0.300 184.750 C -0.181 186.913,-0.040 191.390,0.454 189.673 C 0.665 188.943,0.784 187.233,0.718 185.873 C 0.615 183.703,0.563 183.565,0.300 184.750 M0.075 211.800 C 0.065 213.560,0.211 215.360,0.400 215.800 C 0.838 216.819,0.838 211.521,0.400 209.800 C 0.182 208.944,0.089 209.517,0.075 211.800 M0.400 221.800 C 0.400 223.489,0.539 224.000,1.000 224.000 C 1.634 224.000,1.811 222.227,1.348 220.500 C 0.910 218.865,0.400 219.564,0.400 221.800 M1.200 227.757 C 1.200 228.595,1.430 229.203,1.800 229.345 C 2.447 229.593,2.569 228.873,2.148 227.300 C 1.783 225.940,1.200 226.221,1.200 227.757 M2.000 232.957 C 2.000 233.484,2.270 234.018,2.600 234.145 C 3.260 234.398,3.306 234.234,2.948 232.900 C 2.629 231.709,2.000 231.747,2.000 232.957 M2.862 238.200 C 2.937 240.193,3.422 240.615,3.665 238.900 C 3.865 237.496,3.647 236.400,3.167 236.400 C 2.962 236.400,2.824 237.210,2.862 238.200 M3.600 241.400 C 3.600 241.950,3.780 242.400,4.000 242.400 C 4.220 242.400,4.400 241.950,4.400 241.400 C 4.400 240.850,4.220 240.400,4.000 240.400 C 3.780 240.400,3.600 240.850,3.600 241.400 M4.400 244.800 C 4.400 245.240,4.580 245.600,4.800 245.600 C 5.020 245.600,5.200 245.240,5.200 244.800 C 5.200 244.360,5.020 244.000,4.800 244.000 C 4.580 244.000,4.400 244.360,4.400 244.800 M5.200 248.200 C 5.200 248.530,5.380 248.800,5.600 248.800 C 5.820 248.800,6.000 248.530,6.000 248.200 C 6.000 247.870,5.820 247.600,5.600 247.600 C 5.380 247.600,5.200 247.870,5.200 248.200 M6.000 251.200 C 6.000 251.640,6.180 252.000,6.400 252.000 C 6.620 252.000,6.800 251.640,6.800 251.200 C 6.800 250.760,6.620 250.400,6.400 250.400 C 6.180 250.400,6.000 250.760,6.000 251.200 M6.692 254.030 C 6.924 254.916,7.600 255.074,7.600 254.243 C 7.600 253.936,7.350 253.590,7.045 253.473 C 6.656 253.323,6.551 253.490,6.692 254.030 M8.400 259.376 C 8.400 259.693,8.580 260.064,8.800 260.200 C 9.020 260.336,9.200 260.077,9.200 259.624 C 9.200 259.171,9.020 258.800,8.800 258.800 C 8.580 258.800,8.400 259.059,8.400 259.376 M8.872 261.671 C 8.943 262.147,9.225 262.611,9.500 262.702 C 10.239 262.945,10.115 261.330,9.372 261.045 C 8.903 260.865,8.777 261.022,8.872 261.671 M9.600 264.236 C 9.600 264.808,9.774 265.140,10.000 265.000 C 10.233 264.856,10.400 265.263,10.400 265.976 C 10.400 266.649,10.580 267.200,10.800 267.200 C 11.020 267.200,11.200 267.391,11.200 267.624 C 11.200 267.857,11.016 267.933,10.790 267.794 C 10.565 267.655,10.745 268.189,11.190 268.982 C 11.636 269.775,12.003 270.824,12.006 271.312 C 12.011 272.032,12.086 272.087,12.400 271.600 C 12.693 271.146,12.789 271.322,12.794 272.324 C 12.797 273.103,12.964 273.546,13.200 273.400 C 13.438 273.253,13.600 273.729,13.600 274.576 C 13.600 275.575,13.779 276.000,14.200 276.000 C 14.533 276.000,14.800 275.644,14.800 275.200 C 14.800 274.760,14.620 274.400,14.400 274.400 C 14.180 274.400,14.000 273.950,14.000 273.400 C 14.000 272.850,13.820 272.400,13.600 272.400 C 13.380 272.400,13.200 271.950,13.200 271.400 C 13.200 270.850,13.020 270.400,12.800 270.400 C 12.580 270.400,12.400 269.961,12.400 269.424 C 12.400 268.887,12.220 268.336,12.000 268.200 C 11.780 268.064,11.600 267.513,11.600 266.976 C 11.600 266.439,11.420 266.000,11.200 266.000 C 10.980 266.000,10.800 265.479,10.800 264.843 C 10.800 264.183,10.542 263.587,10.200 263.455 C 9.764 263.288,9.600 263.502,9.600 264.236 M14.400 276.967 C 14.400 277.315,14.685 277.600,15.033 277.600 C 15.740 277.600,15.617 276.739,14.875 276.492 C 14.614 276.405,14.400 276.618,14.400 276.967 M15.200 278.600 C 15.200 278.930,15.380 279.200,15.600 279.200 C 15.820 279.200,16.000 279.560,16.000 280.000 C 16.000 280.440,16.180 280.800,16.400 280.800 C 16.620 280.800,16.806 281.385,16.813 282.100 C 16.828 283.633,17.731 285.014,18.434 284.579 C 18.803 284.351,18.777 284.172,18.326 283.839 C 17.998 283.598,17.731 283.130,17.731 282.800 C 17.732 282.470,17.452 281.570,17.109 280.800 C 16.766 280.030,16.382 279.085,16.255 278.700 C 15.974 277.844,15.200 277.771,15.200 278.600 M18.200 285.600 C 18.336 285.820,18.717 286.000,19.047 286.000 C 19.377 286.000,19.536 285.820,19.400 285.600 C 19.264 285.380,18.883 285.200,18.553 285.200 C 18.223 285.200,18.064 285.380,18.200 285.600 M19.054 287.398 C 19.181 287.726,19.445 287.896,19.642 287.774 C 20.207 287.425,20.060 286.800,19.413 286.800 C 19.056 286.800,18.915 287.035,19.054 287.398 M19.400 288.706 C 19.620 288.868,19.993 289.349,20.229 289.776 C 20.717 290.660,21.600 291.084,21.600 290.433 C 21.600 290.195,21.347 290.000,21.037 290.000 C 20.672 290.000,20.548 289.720,20.684 289.200 C 20.850 288.565,20.698 288.401,19.947 288.406 C 19.426 288.409,19.180 288.544,19.400 288.706 M22.400 293.400 C 22.400 293.730,22.580 294.000,22.800 294.000 C 23.020 294.000,23.200 293.730,23.200 293.400 C 23.200 293.070,23.020 292.800,22.800 292.800 C 22.580 292.800,22.400 293.070,22.400 293.400 M23.206 295.500 C 23.211 296.357,23.298 296.468,23.600 296.000 C 24.106 295.217,24.106 294.400,23.600 294.400 C 23.380 294.400,23.203 294.895,23.206 295.500 M24.000 296.600 C 24.000 296.930,24.180 297.200,24.400 297.200 C 24.620 297.200,24.800 297.560,24.800 298.000 C 24.800 298.440,24.960 298.800,25.157 298.800 C 25.353 298.800,25.632 299.272,25.776 299.848 C 25.921 300.425,26.302 301.159,26.623 301.481 C 26.945 301.802,27.105 302.230,26.980 302.432 C 26.855 302.635,26.943 302.800,27.176 302.800 C 27.409 302.800,27.600 302.987,27.600 303.216 C 27.600 303.573,29.000 305.801,29.601 306.400 C 29.711 306.510,30.056 307.095,30.368 307.700 C 30.680 308.305,31.085 308.800,31.268 308.800 C 31.450 308.800,31.600 309.048,31.600 309.352 C 31.600 309.655,32.320 310.645,33.200 311.552 C 34.080 312.459,34.800 313.516,34.800 313.900 C 34.801 314.688,36.681 317.052,37.030 316.704 C 37.301 316.432,36.336 314.800,35.904 314.800 C 35.737 314.800,35.600 314.585,35.600 314.322 C 35.600 313.732,33.588 310.718,32.901 310.280 C 32.626 310.104,32.400 309.697,32.400 309.376 C 32.400 309.055,32.049 308.492,31.620 308.125 C 31.192 307.758,30.931 307.312,31.041 307.134 C 31.151 306.956,30.872 306.414,30.420 305.930 C 29.969 305.445,29.600 304.813,29.600 304.525 C 29.600 304.236,29.420 304.000,29.200 304.000 C 28.980 304.000,28.800 303.730,28.800 303.400 C 28.800 303.070,28.620 302.800,28.400 302.800 C 28.180 302.800,28.000 302.530,28.000 302.200 C 28.000 301.870,27.820 301.600,27.600 301.600 C 27.380 301.600,27.200 301.240,27.200 300.800 C 27.200 300.360,27.020 300.000,26.800 300.000 C 26.580 300.000,26.400 299.730,26.400 299.400 C 26.400 299.070,26.220 298.800,26.000 298.800 C 25.780 298.800,25.600 298.440,25.600 298.000 C 25.600 297.560,25.420 297.200,25.200 297.200 C 24.980 297.200,24.800 296.930,24.800 296.600 C 24.800 296.270,24.620 296.000,24.400 296.000 C 24.180 296.000,24.000 296.270,24.000 296.600 M37.200 317.640 C 37.200 317.881,37.734 318.578,38.386 319.187 C 39.038 319.796,39.458 320.408,39.319 320.547 C 39.180 320.686,39.368 320.800,39.737 320.800 C 40.313 320.800,40.336 320.676,39.903 319.915 C 39.194 318.668,38.531 318.000,38.005 318.000 C 37.756 318.000,37.664 317.820,37.800 317.600 C 37.936 317.380,37.857 317.200,37.624 317.200 C 37.391 317.200,37.200 317.398,37.200 317.640 M40.000 321.339 C 40.000 321.415,40.376 321.910,40.835 322.439 C 41.294 322.967,41.821 323.669,42.005 323.997 C 42.189 324.325,42.456 324.477,42.598 324.336 C 42.863 324.071,42.165 322.630,41.329 321.715 C 40.903 321.250,40.000 320.994,40.000 321.339 M42.677 324.656 C 42.536 324.797,43.001 325.445,43.710 326.096 C 44.420 326.748,44.747 327.144,44.438 326.978 C 44.066 326.778,43.973 326.833,44.162 327.138 C 44.319 327.392,44.707 327.600,45.024 327.600 C 45.341 327.600,45.600 327.881,45.600 328.224 C 45.600 328.567,45.780 328.736,46.000 328.600 C 46.220 328.464,46.400 328.632,46.400 328.974 C 46.400 329.316,47.210 330.417,48.200 331.421 C 49.190 332.425,50.000 333.416,50.000 333.624 C 50.000 333.831,50.188 334.000,50.418 334.000 C 50.957 334.000,52.800 335.837,52.800 336.374 C 52.800 336.600,53.901 337.823,55.246 339.093 C 56.591 340.362,58.076 341.823,58.546 342.339 C 61.426 345.506,64.000 347.987,64.000 347.597 C 64.000 347.323,64.238 347.381,64.600 347.743 C 64.930 348.073,65.200 348.626,65.200 348.971 C 65.200 349.333,65.539 349.600,66.000 349.600 C 66.452 349.600,66.800 349.867,66.800 350.213 C 66.800 350.549,67.115 350.943,67.500 351.088 C 67.885 351.233,68.677 351.857,69.260 352.475 C 69.844 353.094,70.529 353.600,70.784 353.600 C 71.039 353.600,71.136 353.780,71.000 354.000 C 70.864 354.220,71.042 354.400,71.395 354.400 C 71.748 354.400,72.451 354.805,72.958 355.300 C 75.232 357.519,76.800 358.458,76.800 357.600 C 76.800 357.380,76.623 357.200,76.407 357.200 C 76.190 357.200,75.335 356.580,74.507 355.823 C 70.147 351.838,66.425 348.932,65.900 349.102 C 65.735 349.156,65.645 349.047,65.700 348.861 C 65.755 348.674,62.155 344.880,57.700 340.429 C 53.245 335.977,49.600 332.187,49.600 332.005 C 49.600 331.822,48.614 330.622,47.409 329.337 C 46.204 328.052,45.214 326.857,45.209 326.682 C 45.200 326.364,43.372 324.400,43.085 324.400 C 43.002 324.400,42.818 324.515,42.677 324.656 M77.200 358.339 C 77.200 358.525,77.560 359.093,78.000 359.600 C 78.667 360.370,78.800 360.408,78.800 359.833 C 78.800 359.453,78.543 358.886,78.229 358.571 C 77.583 357.926,77.200 357.839,77.200 358.339 M81.074 361.459 C 80.931 361.602,81.212 362.064,81.699 362.485 C 82.702 363.356,83.204 362.747,82.261 361.804 C 81.585 361.128,81.446 361.088,81.074 361.459 M83.200 363.053 C 83.200 363.477,85.366 365.199,85.900 365.200 C 86.175 365.200,86.400 365.391,86.400 365.624 C 86.400 365.857,86.568 365.943,86.774 365.816 C 86.980 365.689,87.602 366.038,88.156 366.592 C 88.710 367.147,89.442 367.600,89.782 367.600 C 90.122 367.600,90.400 367.780,90.400 368.000 C 90.400 368.220,90.717 368.400,91.105 368.400 C 91.493 368.400,92.146 368.847,92.555 369.392 C 92.965 369.938,93.458 370.288,93.650 370.169 C 93.843 370.050,94.000 370.143,94.000 370.376 C 94.000 370.609,94.300 370.800,94.667 370.800 C 95.033 370.800,95.216 370.917,95.073 371.061 C 94.756 371.377,96.632 372.398,97.546 372.406 C 98.114 372.411,98.121 372.463,97.600 372.800 C 97.132 373.102,97.243 373.189,98.100 373.194 C 98.705 373.197,99.200 373.391,99.200 373.624 C 99.200 373.857,99.380 373.936,99.600 373.800 C 100.212 373.422,100.078 372.918,99.300 372.671 C 98.364 372.375,96.234 371.076,96.067 370.700 C 95.993 370.535,95.712 370.400,95.442 370.400 C 95.172 370.400,94.602 370.085,94.175 369.700 C 93.749 369.315,92.905 368.745,92.300 368.432 C 91.695 368.120,91.200 367.715,91.200 367.532 C 91.200 367.350,90.906 367.200,90.547 367.200 C 90.188 367.200,89.603 366.883,89.247 366.494 C 88.891 366.106,87.885 365.431,87.011 364.994 C 86.137 364.558,85.068 363.885,84.635 363.500 C 83.838 362.790,83.200 362.592,83.200 363.053 M100.655 374.200 C 100.782 374.530,101.032 374.800,101.210 374.800 C 101.389 374.800,101.864 374.917,102.267 375.059 C 102.878 375.275,102.853 375.175,102.117 374.459 C 101.095 373.465,100.321 373.328,100.655 374.200 M107.600 377.829 C 107.600 378.148,108.468 378.907,109.510 379.500 C 110.593 380.116,112.150 380.166,111.783 379.573 C 111.638 379.338,111.260 379.245,110.944 379.366 C 110.628 379.487,110.267 379.320,110.142 378.993 C 110.017 378.667,109.664 378.400,109.357 378.400 C 109.051 378.400,108.800 378.220,108.800 378.000 C 108.800 377.780,108.530 377.600,108.200 377.600 C 107.870 377.600,107.600 377.703,107.600 377.829 M114.000 381.056 C 114.000 381.441,115.330 382.373,115.900 382.387 C 116.175 382.394,116.400 382.220,116.400 382.000 C 116.400 381.780,116.040 381.600,115.600 381.600 C 115.160 381.600,114.800 381.420,114.800 381.200 C 114.800 380.980,114.620 380.800,114.400 380.800 C 114.180 380.800,114.000 380.915,114.000 381.056 M116.800 382.824 C 116.800 383.057,116.965 383.145,117.168 383.020 C 117.370 382.895,117.807 383.064,118.139 383.396 C 118.827 384.084,120.594 384.237,120.183 383.573 C 120.038 383.338,119.682 383.236,119.393 383.347 C 119.103 383.459,118.767 383.291,118.646 382.975 C 118.393 382.315,116.800 382.185,116.800 382.824 M120.875 384.025 C 120.971 384.314,121.286 384.629,121.575 384.725 C 121.875 384.825,122.025 384.675,121.925 384.375 C 121.829 384.086,121.514 383.771,121.225 383.675 C 120.925 383.575,120.775 383.725,120.875 384.025 M122.084 385.016 C 121.647 385.511,121.729 385.600,122.618 385.600 C 123.250 385.600,123.604 385.411,123.508 385.125 C 123.270 384.409,122.662 384.363,122.084 385.016 M124.543 385.800 C 124.873 386.130,125.562 386.400,126.075 386.400 C 126.588 386.400,127.232 386.760,127.507 387.200 C 128.162 388.249,130.403 388.327,130.394 387.300 C 130.389 386.702,130.331 386.687,130.000 387.200 C 129.742 387.600,129.610 387.633,129.606 387.300 C 129.603 387.025,129.251 386.800,128.824 386.800 C 128.397 386.800,127.936 386.620,127.800 386.400 C 127.664 386.180,127.113 386.000,126.576 386.000 C 126.039 386.000,125.600 385.820,125.600 385.600 C 125.600 385.380,125.227 385.200,124.771 385.200 C 124.035 385.200,124.010 385.267,124.543 385.800 " stroke="none" fill="#6194cc" fill-rule="evenodd"></path><path id="path4" d="M129.817 11.572 C 129.691 11.777,129.770 12.058,129.993 12.196 C 130.268 12.365,130.432 73.535,130.500 200.124 L 130.599 387.800 130.702 200.400 C 130.758 97.330,130.685 12.730,130.539 12.400 C 130.393 12.070,130.302 11.665,130.336 11.500 C 130.426 11.079,130.093 11.126,129.817 11.572 M125.800 13.200 C 125.664 13.420,125.923 13.600,126.376 13.600 C 126.829 13.600,127.200 13.420,127.200 13.200 C 127.200 12.980,126.941 12.800,126.624 12.800 C 126.307 12.800,125.936 12.980,125.800 13.200 M120.000 15.600 C 120.000 15.820,120.270 16.000,120.600 16.000 C 120.930 16.000,121.200 15.820,121.200 15.600 C 121.200 15.380,120.930 15.200,120.600 15.200 C 120.270 15.200,120.000 15.380,120.000 15.600 M113.000 18.800 C 112.864 19.020,113.134 19.200,113.600 19.200 C 114.066 19.200,114.336 19.020,114.200 18.800 C 114.064 18.580,113.794 18.400,113.600 18.400 C 113.406 18.400,113.136 18.580,113.000 18.800 M104.812 23.184 C 104.488 23.389,104.344 23.678,104.493 23.826 C 104.641 23.974,105.053 23.804,105.410 23.448 C 106.113 22.744,105.757 22.587,104.812 23.184 M99.900 25.706 C 99.075 26.165,98.400 26.675,98.400 26.840 C 98.400 27.208,100.694 26.095,101.020 25.568 C 101.149 25.358,101.423 25.291,101.628 25.417 C 101.832 25.544,102.000 25.457,102.000 25.224 C 102.000 24.649,101.656 24.728,99.900 25.706 M87.002 33.998 C 86.603 34.439,86.407 34.800,86.567 34.800 C 86.988 34.800,88.128 33.595,87.912 33.379 C 87.811 33.278,87.402 33.556,87.002 33.998 M79.192 39.410 C 78.914 39.745,78.802 40.135,78.943 40.276 C 79.084 40.418,79.200 40.323,79.200 40.067 C 79.200 39.810,79.470 39.600,79.800 39.600 C 80.130 39.600,80.400 39.420,80.400 39.200 C 80.400 38.606,79.768 38.716,79.192 39.410 M52.070 64.052 C 51.558 64.683,51.251 65.200,51.388 65.200 C 51.844 65.200,53.598 63.246,53.297 63.074 C 53.133 62.980,52.581 63.421,52.070 64.052 M26.286 98.762 C 25.496 100.100,25.443 100.400,26.000 100.400 C 26.220 100.400,26.400 100.099,26.400 99.731 C 26.400 99.364,26.698 98.734,27.062 98.331 C 27.426 97.929,27.555 97.600,27.348 97.600 C 27.142 97.600,26.664 98.123,26.286 98.762 M7.812 141.717 C 7.641 142.112,7.613 142.547,7.751 142.684 C 8.157 143.090,8.484 142.520,8.297 141.731 C 8.132 141.033,8.110 141.032,7.812 141.717 M5.200 150.400 C 5.200 150.840,5.380 151.200,5.600 151.200 C 5.820 151.200,6.000 150.840,6.000 150.400 C 6.000 149.960,5.820 149.600,5.600 149.600 C 5.380 149.600,5.200 149.960,5.200 150.400 M394.000 150.200 C 394.000 150.530,394.180 150.800,394.400 150.800 C 394.620 150.800,394.800 150.530,394.800 150.200 C 394.800 149.870,394.620 149.600,394.400 149.600 C 394.180 149.600,394.000 149.870,394.000 150.200 M3.778 156.835 C 3.631 157.074,3.710 157.470,3.955 157.715 C 4.282 158.042,4.400 157.926,4.400 157.280 C 4.400 156.314,4.192 156.165,3.778 156.835 M2.000 165.200 C 2.000 165.640,2.180 166.000,2.400 166.000 C 2.620 166.000,2.800 165.640,2.800 165.200 C 2.800 164.760,2.620 164.400,2.400 164.400 C 2.180 164.400,2.000 164.760,2.000 165.200 M1.500 169.029 C 1.335 169.196,1.200 169.789,1.200 170.347 C 1.200 171.075,1.322 171.238,1.634 170.926 C 1.872 170.688,2.007 170.094,1.934 169.608 C 1.860 169.122,1.665 168.861,1.500 169.029 M398.000 169.800 C 398.000 170.130,398.180 170.400,398.400 170.400 C 398.620 170.400,398.800 170.130,398.800 169.800 C 398.800 169.470,398.620 169.200,398.400 169.200 C 398.180 169.200,398.000 169.470,398.000 169.800 M0.400 175.400 C 0.400 175.730,0.580 176.000,0.800 176.000 C 1.020 176.000,1.200 175.730,1.200 175.400 C 1.200 175.070,1.020 174.800,0.800 174.800 C 0.580 174.800,0.400 175.070,0.400 175.400 M0.109 183.600 C 0.109 184.590,0.187 184.995,0.282 184.500 C 0.378 184.005,0.378 183.195,0.282 182.700 C 0.187 182.205,0.109 182.610,0.109 183.600 M0.093 216.400 C 0.093 217.170,0.175 217.485,0.276 217.100 C 0.376 216.715,0.376 216.085,0.276 215.700 C 0.175 215.315,0.093 215.630,0.093 216.400 M1.200 230.000 C 1.200 230.440,1.380 230.800,1.600 230.800 C 1.820 230.800,2.000 230.440,2.000 230.000 C 2.000 229.560,1.820 229.200,1.600 229.200 C 1.380 229.200,1.200 229.560,1.200 230.000 M398.000 230.200 C 398.000 230.530,398.180 230.800,398.400 230.800 C 398.620 230.800,398.800 230.530,398.800 230.200 C 398.800 229.870,398.620 229.600,398.400 229.600 C 398.180 229.600,398.000 229.870,398.000 230.200 M2.000 234.800 C 2.000 235.240,2.180 235.600,2.400 235.600 C 2.620 235.600,2.800 235.240,2.800 234.800 C 2.800 234.360,2.620 234.000,2.400 234.000 C 2.180 234.000,2.000 234.360,2.000 234.800 M5.200 249.600 C 5.200 250.040,5.380 250.400,5.600 250.400 C 5.820 250.400,6.000 250.040,6.000 249.600 C 6.000 249.160,5.820 248.800,5.600 248.800 C 5.380 248.800,5.200 249.160,5.200 249.600 M6.000 252.600 C 6.000 252.930,6.180 253.200,6.400 253.200 C 6.620 253.200,6.800 252.930,6.800 252.600 C 6.800 252.270,6.620 252.000,6.400 252.000 C 6.180 252.000,6.000 252.270,6.000 252.600 M7.600 258.000 C 7.600 258.440,7.780 258.800,8.000 258.800 C 8.220 258.800,8.400 258.440,8.400 258.000 C 8.400 257.560,8.220 257.200,8.000 257.200 C 7.780 257.200,7.600 257.560,7.600 258.000 M33.200 312.229 C 33.200 312.653,34.436 313.697,34.667 313.467 C 34.792 313.341,34.617 312.960,34.276 312.619 C 33.641 311.984,33.200 311.824,33.200 312.229 M50.422 334.300 C 50.449 334.669,52.800 336.559,52.800 336.212 C 52.800 335.906,50.920 334.000,50.618 334.000 C 50.498 334.000,50.410 334.135,50.422 334.300 M78.832 359.820 C 78.795 360.303,79.606 361.200,80.080 361.200 C 80.256 361.200,80.400 361.020,80.400 360.800 C 80.400 360.580,80.145 360.400,79.833 360.400 C 79.522 360.400,79.176 360.175,79.065 359.900 C 78.954 359.625,78.849 359.589,78.832 359.820 M91.200 368.704 C 91.200 368.871,91.560 369.232,92.000 369.507 C 92.930 370.088,93.054 369.797,92.229 368.971 C 91.598 368.341,91.200 368.237,91.200 368.704 M99.600 373.924 C 99.600 374.139,99.885 374.424,100.233 374.557 C 100.623 374.707,100.806 374.618,100.708 374.325 C 100.509 373.727,99.600 373.398,99.600 373.924 M104.400 376.332 C 104.400 376.515,104.895 376.920,105.500 377.232 C 106.105 377.544,106.725 377.974,106.878 378.188 C 107.031 378.402,107.278 378.456,107.426 378.307 C 107.814 377.919,106.485 376.700,106.000 377.000 C 105.777 377.138,105.486 376.969,105.354 376.625 C 105.104 375.972,104.400 375.756,104.400 376.332 M111.600 380.400 C 111.600 380.620,111.870 380.800,112.200 380.800 C 112.530 380.800,112.800 380.620,112.800 380.400 C 112.800 380.180,112.530 380.000,112.200 380.000 C 111.870 380.000,111.600 380.180,111.600 380.400 M125.800 386.800 C 125.936 387.020,126.307 387.200,126.624 387.200 C 126.941 387.200,127.200 387.020,127.200 386.800 C 127.200 386.580,126.829 386.400,126.376 386.400 C 125.923 386.400,125.664 386.580,125.800 386.800 " stroke="none" fill="#6c9ccc" fill-rule="evenodd"></path></g></svg>