<?xml version="1.0" encoding="UTF-8"?>
<!DOCTYPE svg PUBLIC "-//W3C//DTD SVG 1.1//EN" "http://www.w3.org/Graphics/SVG/1.1/DTD/svg11.dtd">
<svg xmlns="http://www.w3.org/2000/svg" version="1.1" width="800px" height="800px" style="shape-rendering:geometricPrecision; text-rendering:geometricPrecision; image-rendering:optimizeQuality; fill-rule:evenodd; clip-rule:evenodd" xmlns:xlink="http://www.w3.org/1999/xlink">
<g><path style="opacity:0.988" fill="#d60f37" d="M 656.5,475.5 C 655.833,475.5 655.5,475.833 655.5,476.5C 652.726,479.713 650.726,483.38 649.5,487.5C 643.328,500.525 635.661,512.525 626.5,523.5C 631.434,507.032 636.767,490.699 642.5,474.5C 643.043,474.44 643.376,474.107 643.5,473.5C 638.348,472.186 633.348,472.186 628.5,473.5C 625.324,484.534 621.991,495.534 618.5,506.5C 615.499,495.829 612.499,485.162 609.5,474.5C 604.615,473.198 599.782,473.198 595,474.5C 592.401,484.962 589.401,495.295 586,505.5C 582.755,494.687 579.588,483.854 576.5,473C 583.604,462.643 590.104,451.81 596,440.5C 610.053,407.971 607.72,376.637 589,346.5C 579.498,330.666 568.832,315.666 557,301.5C 543.939,287.77 530.272,274.77 516,262.5C 503.757,246.788 501.09,229.455 508,210.5C 510.022,206.997 512.189,203.663 514.5,200.5C 527.48,189.685 542.48,183.185 559.5,181C 589.436,178.314 615.936,186.481 639,205.5C 642.96,216.276 642.127,226.61 636.5,236.5C 637.15,239.655 638.817,242.155 641.5,244C 648.015,248.258 655.015,251.425 662.5,253.5C 671.912,251.813 681.245,249.813 690.5,247.5C 696.021,249.858 700.855,253.191 705,257.5C 706.538,262.12 705.038,265.287 700.5,267C 684.718,272.756 668.385,275.256 651.5,274.5C 637.457,274.028 623.457,273.528 609.5,273C 666.024,315.559 685.857,371.393 669,440.5C 665.322,452.369 661.155,464.036 656.5,475.5 Z"/></g>
<g><path style="opacity:0.995" fill="#d60f37" d="M 469.5,302.5 C 478.736,310.464 488.403,317.964 498.5,325C 511.257,335.744 521.757,348.244 530,362.5C 540.83,386.375 539.163,409.375 525,431.5C 514.766,446.234 501.599,457.567 485.5,465.5C 483.516,465.617 481.85,464.95 480.5,463.5C 478.434,460.726 476.267,458.059 474,455.5C 471.002,453.332 468.169,450.999 465.5,448.5C 465.445,445.386 464.112,443.052 461.5,441.5C 457.879,439.54 454.545,437.207 451.5,434.5C 451.863,433.817 452.196,433.15 452.5,432.5C 453.087,430.315 452.087,428.648 449.5,427.5C 449.811,426.522 450.478,425.855 451.5,425.5C 453.641,426.808 455.641,428.308 457.5,430C 459.879,430.614 462.212,430.947 464.5,431C 454.322,424.304 444.322,417.47 434.5,410.5C 435.289,410.217 435.956,409.717 436.5,409C 433.855,407.956 431.522,406.456 429.5,404.5C 428.833,404.5 428.5,404.167 428.5,403.5C 427.329,402.655 425.995,401.989 424.5,401.5C 423.833,400.833 423.167,400.167 422.5,399.5C 421.359,397.451 421.359,395.451 422.5,393.5C 429.167,396.985 435.167,401.485 440.5,407C 441.745,407.791 443.078,408.291 444.5,408.5C 443.386,407.115 442.386,405.615 441.5,404C 435.275,399.597 428.941,395.43 422.5,391.5C 418.249,389.256 414.249,386.589 410.5,383.5C 407.473,382.374 407.14,380.874 409.5,379C 406.676,377.755 404.009,376.255 401.5,374.5C 401.672,373.508 401.338,372.842 400.5,372.5C 399.608,370.054 398.108,369.388 396,370.5C 394.418,367.659 392.251,366.659 389.5,367.5C 388.482,366.807 387.482,366.141 386.5,365.5C 383.662,363.325 380.662,361.158 377.5,359C 370.542,357.355 364.208,354.355 358.5,350C 356.482,349.495 354.482,348.995 352.5,348.5C 349.453,345.81 345.787,344.476 341.5,344.5C 337.302,343.216 333.302,341.382 329.5,339C 327.246,337.85 324.913,337.516 322.5,338C 328.494,341.909 334.827,345.076 341.5,347.5C 341.912,349.973 340.912,351.306 338.5,351.5C 337.213,347.06 335.547,346.727 333.5,350.5C 333.631,351.376 333.298,352.043 332.5,352.5C 330.851,351.352 329.351,350.019 328,348.5C 327.282,349.451 326.449,349.617 325.5,349C 319.892,345.724 314.558,342.057 309.5,338C 308.241,337.018 306.908,336.685 305.5,337C 310.116,339.282 313.783,342.616 316.5,347C 321.094,350.448 325.76,353.615 330.5,356.5C 330.44,357.043 330.107,357.376 329.5,357.5C 327.167,356.167 324.833,354.833 322.5,353.5C 321.264,354.246 319.93,354.579 318.5,354.5C 309.743,351.306 300.743,348.806 291.5,347C 285.98,344.373 280.313,342.207 274.5,340.5C 272.589,338.298 270.255,336.631 267.5,335.5C 262.062,330.743 255.728,328.243 248.5,328C 254.058,331.06 259.725,333.893 265.5,336.5C 266.11,337.391 266.443,338.391 266.5,339.5C 258.137,336.486 250.137,332.652 242.5,328C 227.11,323.693 212.11,319.193 197.5,314.5C 216.8,281.115 241.8,252.615 272.5,229C 306.059,208.651 342.559,199.151 382,200.5C 403.217,201.103 424.383,202.437 445.5,204.5C 433.728,242.077 441.728,274.743 469.5,302.5 Z"/></g>
<g><path style="opacity:0.8" fill="#403f3f" d="M 514.5,200.5 C 512.189,203.663 510.022,206.997 508,210.5C 501.09,229.455 503.757,246.788 516,262.5C 530.272,274.77 543.939,287.77 557,301.5C 568.832,315.666 579.498,330.666 589,346.5C 607.72,376.637 610.053,407.971 596,440.5C 590.104,451.81 583.604,462.643 576.5,473C 579.588,483.854 582.755,494.687 586,505.5C 589.401,495.295 592.401,484.962 595,474.5C 599.782,473.198 604.615,473.198 609.5,474.5C 612.499,485.162 615.499,495.829 618.5,506.5C 621.991,495.534 625.324,484.534 628.5,473.5C 633.363,473.181 638.03,473.514 642.5,474.5C 636.767,490.699 631.434,507.032 626.5,523.5C 626.167,524.5 625.5,525.167 624.5,525.5C 620.167,525.5 615.833,525.5 611.5,525.5C 609.282,514.295 606.282,503.295 602.5,492.5C 598.892,503.326 595.892,514.326 593.5,525.5C 588.786,525.827 584.12,525.493 579.5,524.5C 574.952,510.687 570.119,497.02 565,483.5C 544.046,502.56 519.546,514.56 491.5,519.5C 485.294,503.145 476.794,488.145 466,474.5C 465.333,485.5 465.333,496.5 466,507.5C 468.339,509.14 469.172,511.14 468.5,513.5C 467.416,512.335 466.583,511.002 466,509.5C 465.667,515.167 465.333,520.833 465,526.5C 463.833,537 458,542.833 447.5,544C 440.416,544.66 433.416,544.16 426.5,542.5C 426.5,539.167 426.5,535.833 426.5,532.5C 433.623,535.094 440.956,535.927 448.5,535C 454.338,532.504 457.005,528.004 456.5,521.5C 456.333,520.5 456.167,519.5 456,518.5C 445.425,526.962 435.425,526.295 426,516.5C 419.772,503.99 420.105,491.656 427,479.5C 435.41,470.849 445.076,469.183 456,474.5C 458.677,472.959 461.51,471.959 464.5,471.5C 464.167,470.5 463.5,469.833 462.5,469.5C 460.833,468.5 459.5,467.167 458.5,465.5C 457.581,462.911 455.914,460.911 453.5,459.5C 454.29,458.599 455.29,457.932 456.5,457.5C 457.473,459.139 458.806,460.473 460.5,461.5C 460.5,462.167 460.833,462.5 461.5,462.5C 463.515,467.524 467.181,470.191 472.5,470.5C 473.901,470.029 475.234,469.362 476.5,468.5C 475.048,467.06 474.048,465.394 473.5,463.5C 476.259,464.642 478.926,465.976 481.5,467.5C 483.026,467.006 484.359,466.339 485.5,465.5C 501.599,457.567 514.766,446.234 525,431.5C 539.163,409.375 540.83,386.375 530,362.5C 521.757,348.244 511.257,335.744 498.5,325C 488.403,317.964 478.736,310.464 469.5,302.5C 495.226,304.079 520.893,304.913 546.5,305C 535.144,293.255 523.311,282.088 511,271.5C 498.647,257.092 494.647,240.759 499,222.5C 502.086,213.6 507.253,206.266 514.5,200.5 Z M 442.5,479.5 C 447.092,479.398 451.425,480.398 455.5,482.5C 456.665,491.816 456.832,501.149 456,510.5C 441.227,519.749 433.061,515.749 431.5,498.5C 430.866,489.407 434.533,483.074 442.5,479.5 Z"/></g>
<g><path style="opacity:0.86" fill="#423f40" d="M 197.5,314.5 C 212.11,319.193 227.11,323.693 242.5,328C 250.137,332.652 258.137,336.486 266.5,339.5C 266.435,339.938 266.601,340.272 267,340.5C 267.519,339.484 268.353,338.818 269.5,338.5C 271.177,339.187 272.844,339.854 274.5,340.5C 280.313,342.207 285.98,344.373 291.5,347C 300.743,348.806 309.743,351.306 318.5,354.5C 321.175,355.355 323.842,356.522 326.5,358C 332.086,362.751 338.086,366.918 344.5,370.5C 345.583,369.635 345.749,368.635 345,367.5C 342.92,365.877 340.754,364.377 338.5,363C 337.167,362.333 337.167,361.667 338.5,361C 337.429,360.148 336.429,359.315 335.5,358.5C 335.423,357.25 334.756,356.417 333.5,356C 334.066,355.005 334.733,354.172 335.5,353.5C 336.222,353.918 336.722,354.584 337,355.5C 337.333,354.833 337.667,354.167 338,353.5C 340.713,355.72 343.546,357.72 346.5,359.5C 350.382,362.609 354.716,364.942 359.5,366.5C 359.833,366.5 360.167,366.5 360.5,366.5C 362.849,368.341 365.515,369.674 368.5,370.5C 367.737,371.268 366.737,371.768 365.5,372C 366.833,372.667 366.833,373.333 365.5,374C 366.667,374.5 367.5,375.333 368,376.5C 368.72,374.944 369.887,373.944 371.5,373.5C 372.117,373.389 372.617,373.056 373,372.5C 378.75,375.772 384.584,378.772 390.5,381.5C 394.074,384.966 398.074,387.966 402.5,390.5C 403.362,389.234 404.029,387.901 404.5,386.5C 406.25,387.659 407.25,389.326 407.5,391.5C 406.957,391.56 406.624,391.893 406.5,392.5C 410.017,394.008 412.851,396.341 415,399.5C 415.77,398.402 416.603,398.402 417.5,399.5C 418.315,400.837 419.482,401.837 421,402.5C 421.617,401.551 421.451,400.718 420.5,400C 421.094,399.536 421.761,399.369 422.5,399.5C 423.167,400.167 423.833,400.833 424.5,401.5C 423.438,402.575 423.438,403.575 424.5,404.5C 425.736,403.754 427.07,403.421 428.5,403.5C 428.5,404.167 428.833,404.5 429.5,404.5C 430.171,405.847 430.171,407.014 429.5,408C 431.078,409.094 432.745,409.928 434.5,410.5C 444.322,417.47 454.322,424.304 464.5,431C 462.212,430.947 459.879,430.614 457.5,430C 455.641,428.308 453.641,426.808 451.5,425.5C 450.478,425.855 449.811,426.522 449.5,427.5C 449.158,428.338 448.492,428.672 447.5,428.5C 445.834,427.334 444.167,427.334 442.5,428.5C 441.972,431.239 441.972,433.739 442.5,436C 441.874,436.75 441.374,437.584 441,438.5C 439.951,437.483 438.784,437.316 437.5,438C 438.244,439.039 439.244,439.539 440.5,439.5C 444.287,443.582 447.953,447.749 451.5,452C 451.167,452.333 450.833,452.667 450.5,453C 451.577,453.47 452.577,453.303 453.5,452.5C 453.328,453.492 453.662,454.158 454.5,454.5C 455.167,455.5 455.833,456.5 456.5,457.5C 455.29,457.932 454.29,458.599 453.5,459.5C 453.167,459.5 452.833,459.5 452.5,459.5C 450.167,457.833 448.167,455.833 446.5,453.5C 445.089,451.086 443.089,449.419 440.5,448.5C 398.294,417.683 351.627,408.35 300.5,420.5C 299.583,419.873 298.583,419.539 297.5,419.5C 285.666,411.593 272.666,405.76 258.5,402C 247.925,396.435 237.592,390.602 227.5,384.5C 228.954,381.6 227.954,380.267 224.5,380.5C 224.158,379.662 223.492,379.328 222.5,379.5C 220.713,378.553 219.047,377.387 217.5,376C 220.028,374.983 220.028,373.816 217.5,372.5C 218.641,371.575 218.641,370.741 217.5,370C 218.908,369.685 220.241,370.018 221.5,371C 219.405,371.556 219.238,372.056 221,372.5C 222.28,372.387 223.113,371.72 223.5,370.5C 221.664,369.081 219.664,367.914 217.5,367C 223.403,368.919 229.403,370.085 235.5,370.5C 236.167,370.833 236.833,371.167 237.5,371.5C 237.5,372.5 237.5,373.5 237.5,374.5C 240.188,374.166 242.521,374.832 244.5,376.5C 246.751,377.695 249.085,378.695 251.5,379.5C 250.6,381.712 251.434,383.379 254,384.5C 254.617,383.551 254.451,382.718 253.5,382C 254.872,381.598 256.205,381.098 257.5,380.5C 258.107,380.624 258.44,380.957 258.5,381.5C 257.957,381.56 257.624,381.893 257.5,382.5C 259.495,383.295 261.495,383.961 263.5,384.5C 263.918,385.222 264.584,385.722 265.5,386C 264.495,387.507 263.162,388.673 261.5,389.5C 261.624,390.107 261.957,390.44 262.5,390.5C 263.738,390.81 263.738,391.31 262.5,392C 257.158,391.743 257.158,392.743 262.5,395C 264.447,395.991 266.447,396.325 268.5,396C 266.441,394.815 266.274,393.648 268,392.5C 269.225,392.862 270.391,393.362 271.5,394C 270.289,394.893 270.289,395.726 271.5,396.5C 272.333,395.5 273.167,394.5 274,393.5C 274.617,394.449 274.451,395.282 273.5,396C 275.351,396.837 277.184,397.671 279,398.5C 279.54,396.865 279.04,395.532 277.5,394.5C 281.43,393.437 281.43,392.437 277.5,391.5C 277.5,391.167 277.5,390.833 277.5,390.5C 277.167,389.833 276.833,389.167 276.5,388.5C 277.043,388.44 277.376,388.107 277.5,387.5C 276.846,385.885 276.346,384.218 276,382.5C 275.581,383.672 274.915,384.672 274,385.5C 274.811,383.209 273.977,381.375 271.5,380C 269.888,379.28 268.388,379.446 267,380.5C 266.536,379.906 266.369,379.239 266.5,378.5C 268.757,378.038 270.757,377.038 272.5,375.5C 270.293,373.317 267.626,371.984 264.5,371.5C 266.083,371.382 267.749,370.549 269.5,369C 267.39,369.347 265.39,369.18 263.5,368.5C 264.301,366.958 264.634,365.292 264.5,363.5C 258.168,364.114 254.334,361.78 253,356.5C 252.023,357.774 251.189,357.774 250.5,356.5C 247.02,355.313 243.353,354.813 239.5,355C 239.833,355.333 240.167,355.667 240.5,356C 239.584,356.278 238.918,356.778 238.5,357.5C 237.833,357.5 237.167,357.5 236.5,357.5C 235.252,355.22 233.419,353.554 231,352.5C 230.5,352.667 230,352.833 229.5,353C 233.196,355.414 232.696,355.914 228,354.5C 227.667,355.167 227.333,355.833 227,356.5C 225.603,353.693 223.769,353.193 221.5,355C 223.001,356.252 224.668,357.252 226.5,358C 226.272,358.399 225.938,358.565 225.5,358.5C 224.25,358.577 223.417,359.244 223,360.5C 221.951,358.893 220.451,358.227 218.5,358.5C 218.167,357.5 217.5,356.833 216.5,356.5C 215.912,352.663 213.912,351.663 210.5,353.5C 208.455,351.016 205.788,350.016 202.5,350.5C 202.15,347.29 200.65,346.29 198,347.5C 196.272,347.101 194.772,346.434 193.5,345.5C 194.376,345.631 195.043,345.298 195.5,344.5C 194.359,343.575 194.359,342.741 195.5,342C 193.754,338.644 191.087,336.478 187.5,335.5C 188.506,334.604 188.506,333.938 187.5,333.5C 186.365,335.313 185.365,337.146 184.5,339C 185.471,340.204 186.471,340.704 187.5,340.5C 187.291,341.086 186.957,341.586 186.5,342C 184.5,342.333 182.5,342.667 180.5,343C 181.416,343.278 182.082,343.778 182.5,344.5C 181.448,344.351 180.448,344.517 179.5,345C 180.252,345.671 180.586,346.504 180.5,347.5C 179.178,347.33 178.011,347.663 177,348.5C 176.227,351.211 175.06,353.711 173.5,356C 173.645,356.772 173.978,357.439 174.5,358C 173.584,358.278 172.918,358.778 172.5,359.5C 171.662,359.842 171.328,360.508 171.5,361.5C 168.9,363.244 169.066,364.577 172,365.5C 172.608,367.154 173.108,368.821 173.5,370.5C 171.621,369.659 169.621,369.325 167.5,369.5C 166.833,369.5 166.5,369.833 166.5,370.5C 164.116,370.557 161.782,370.223 159.5,369.5C 158.74,370.489 157.573,371.155 156,371.5C 149.138,369.909 142.304,368.243 135.5,366.5C 134.289,367.274 134.289,368.107 135.5,369C 134.167,369.333 132.833,369.667 131.5,370C 142.196,373.924 153.196,376.424 164.5,377.5C 167.344,378.551 170.344,378.551 173.5,377.5C 175.997,378.667 178.497,380.001 181,381.5C 182.762,381.056 182.595,380.556 180.5,380C 180.728,379.601 181.062,379.435 181.5,379.5C 184.016,379.755 186.35,380.589 188.5,382C 187.376,382.249 186.376,382.749 185.5,383.5C 185.957,384.298 186.624,384.631 187.5,384.5C 186.602,385.158 185.602,385.824 184.5,386.5C 185.325,387.386 186.325,387.719 187.5,387.5C 187.842,388.338 188.508,388.672 189.5,388.5C 189.5,389.167 189.167,389.5 188.5,389.5C 182.176,388.768 175.842,388.101 169.5,387.5C 166.57,386.701 163.57,386.368 160.5,386.5C 154.01,384.695 147.51,383.028 141,381.5C 140.667,381.833 140.333,382.167 140,382.5C 133.892,381.609 127.725,380.776 121.5,380C 119.285,379.612 117.952,378.612 117.5,377C 111.171,376.678 104.838,375.511 98.5,373.5C 97.8333,373.667 97.1667,373.833 96.5,374C 98.2705,374.535 98.6039,375.369 97.5,376.5C 92.814,375.267 88.4807,373.934 84.5,372.5C 79.1306,373.576 74.1306,372.576 69.5,369.5C 68.914,369.709 68.414,370.043 68,370.5C 65.3984,369.704 63.2318,368.371 61.5,366.5C 59.2722,365.623 57.2722,364.29 55.5,362.5C 55.1667,361.167 54.8333,361.167 54.5,362.5C 52.9139,361.587 51.4139,361.587 50,362.5C 46.7717,359.378 47.4384,358.378 52,359.5C 53.5865,357.956 55.4198,356.789 57.5,356C 54.6644,353.416 51.3311,352.249 47.5,352.5C 47.1667,351.167 46.8333,351.167 46.5,352.5C 45.5178,353.141 44.5178,353.807 43.5,354.5C 40.8333,353.833 38.1667,353.167 35.5,352.5C 33.2072,352.026 31.0406,352.692 29,354.5C 28.228,354.355 27.5613,354.022 27,353.5C 27.3554,352.041 27.1888,350.707 26.5,349.5C 27.265,348.34 28.265,347.34 29.5,346.5C 31.3325,347.248 32.9991,348.248 34.5,349.5C 35.4255,348.359 36.2588,348.359 37,349.5C 38.4641,346.113 40.4641,346.113 43,349.5C 44.3333,348.167 45.6667,348.167 47,349.5C 47.5,349 48,348.5 48.5,348C 46.5273,347.505 44.5273,347.338 42.5,347.5C 42.5,346.5 42.5,345.5 42.5,344.5C 42.8333,344.5 43.1667,344.5 43.5,344.5C 43.7352,345.097 44.2352,345.43 45,345.5C 49.1274,344.761 53.294,344.261 57.5,344C 56.0072,342.844 56.1739,342.01 58,341.5C 60.5042,342.015 63.1708,342.015 66,341.5C 81.9036,342.585 97.7369,345.252 113.5,349.5C 113.833,349.333 114.167,349.167 114.5,349C 112.745,348.28 111.911,347.113 112,345.5C 113.77,346.276 115.603,346.11 117.5,345C 115.19,344.503 112.857,344.337 110.5,344.5C 110.286,342.856 110.62,341.356 111.5,340C 107.217,337.799 102.883,335.799 98.5,334C 99.5,333.667 100.5,333.333 101.5,333C 98.7176,330.583 95.7176,329.416 92.5,329.5C 89.8035,328.831 87.1368,328.164 84.5,327.5C 84.1667,326.167 83.8333,326.167 83.5,327.5C 82.1667,327.5 80.8333,327.5 79.5,327.5C 79.7731,324.863 80.1064,322.53 80.5,320.5C 83.3419,322.803 86.3419,323.47 89.5,322.5C 88.7377,320.738 87.4044,319.738 85.5,319.5C 83.0688,318.259 83.0688,317.092 85.5,316C 84.9747,315.308 84.3081,314.808 83.5,314.5C 79.5158,315.77 75.5158,315.77 71.5,314.5C 71.7093,313.914 72.0426,313.414 72.5,313C 75.4262,312.782 78.2595,312.282 81,311.5C 84.1574,312.881 87.4907,313.548 91,313.5C 96.7055,313.189 102.205,312.189 107.5,310.5C 121.595,313.66 135.595,315.993 149.5,317.5C 150.741,316.963 151.908,316.296 153,315.5C 159.632,318.131 166.465,319.631 173.5,320C 172.833,319.667 172.167,319.333 171.5,319C 176.167,318.667 180.833,318.333 185.5,318C 184.062,317.781 182.729,317.281 181.5,316.5C 184.167,315.5 186.833,314.5 189.5,313.5C 192.115,314.269 194.781,314.603 197.5,314.5 Z M 107.5,314.5 C 109.01,315.728 110.51,315.728 112,314.5C 112.374,315.416 112.874,316.25 113.5,317C 111.087,317.484 108.754,317.15 106.5,316C 107.056,315.617 107.389,315.117 107.5,314.5 Z M 147.5,321.5 C 149.185,320.156 150.852,320.323 152.5,322C 150.735,322.64 149.068,322.473 147.5,321.5 Z M 192.5,321.5 C 192.5,321.833 192.5,322.167 192.5,322.5C 189.615,322.194 186.948,322.527 184.5,323.5C 181.012,323.295 177.679,322.461 174.5,321C 180.44,321.361 186.44,321.527 192.5,321.5 Z M 89.5,322.5 C 91.7857,322.595 93.7857,323.262 95.5,324.5C 92.9899,324.946 90.9899,324.28 89.5,322.5 Z M 113.5,329.5 C 116.152,329.41 118.485,330.076 120.5,331.5C 119.508,331.328 118.842,331.662 118.5,332.5C 117.127,332.657 115.793,332.49 114.5,332C 115.167,331.667 115.833,331.333 116.5,331C 115.263,330.768 114.263,330.268 113.5,329.5 Z M 120.5,331.5 C 122.179,331.285 123.179,331.952 123.5,333.5C 121.585,333.784 119.919,333.451 118.5,332.5C 119.492,332.672 120.158,332.338 120.5,331.5 Z M 136.5,336.5 C 131.908,336.118 127.575,335.118 123.5,333.5C 128.184,332.774 132.85,333.274 137.5,335C 136.944,335.383 136.611,335.883 136.5,336.5 Z M 136.5,336.5 C 140.425,337.245 144.092,337.245 147.5,336.5C 150.241,336.707 152.574,337.707 154.5,339.5C 158.56,340.01 162.56,340.844 166.5,342C 164.203,343.16 164.536,344.16 167.5,345C 166.359,345.741 166.359,346.575 167.5,347.5C 167.333,347.833 167.167,348.167 167,348.5C 165.055,347.137 162.888,346.303 160.5,346C 158.809,344.595 156.976,343.428 155,342.5C 154.283,343.044 153.783,343.711 153.5,344.5C 151.32,343.883 149.32,342.883 147.5,341.5C 148.326,340.549 148.492,339.549 148,338.5C 144.112,339.745 140.279,339.078 136.5,336.5 Z M 171.5,345.5 C 175.768,347.315 176.101,347.982 172.5,347.5C 171.702,347.043 171.369,346.376 171.5,345.5 Z M 54.5,348.5 C 54.3893,347.883 54.056,347.383 53.5,347C 54.825,347.148 55.9916,346.982 57,346.5C 57.6667,347.5 57.6667,348.5 57,349.5C 56.3292,348.748 55.4959,348.414 54.5,348.5 Z M 65.5,347.5 C 63.6158,349.806 61.6158,349.639 59.5,347C 61.5454,346.51 63.5454,346.677 65.5,347.5 Z M 65.5,347.5 C 66.0768,346.227 66.7435,346.227 67.5,347.5C 67.0302,348.463 66.3635,348.463 65.5,347.5 Z M 69.5,347.5 C 72.1096,346.498 74.7763,346.665 77.5,348C 74.633,348.801 71.9664,348.634 69.5,347.5 Z M 61.5,359.5 C 59.4727,359.662 57.4727,359.495 55.5,359C 57.8607,356.891 59.8607,357.058 61.5,359.5 Z M 74.5,360.5 C 75.3739,359.475 76.5405,358.808 78,358.5C 80.1956,359.09 82.3622,359.757 84.5,360.5C 85.086,360.291 85.586,359.957 86,359.5C 90.6231,361.569 94.7898,363.569 98.5,365.5C 93.2223,365.207 88.0556,365.207 83,365.5C 80.595,364.726 78.095,364.226 75.5,364C 75.8333,363.667 76.1667,363.333 76.5,363C 73.0433,361.257 69.3767,360.257 65.5,360C 66.354,358.978 67.354,358.145 68.5,357.5C 70.2433,359.038 72.2433,360.038 74.5,360.5 Z M 109.5,361.5 C 110.849,360.203 112.182,360.37 113.5,362C 112.181,362.195 110.847,362.028 109.5,361.5 Z M 108.5,367.5 C 104.922,367.451 101.589,366.785 98.5,365.5C 102.315,363.955 105.648,364.622 108.5,367.5 Z M 166.5,370.5 C 166.233,372.965 165.566,375.299 164.5,377.5C 153.196,376.424 142.196,373.924 131.5,370C 132.833,369.667 134.167,369.333 135.5,369C 134.289,368.107 134.289,367.274 135.5,366.5C 142.304,368.243 149.138,369.909 156,371.5C 157.573,371.155 158.74,370.489 159.5,369.5C 161.782,370.223 164.116,370.557 166.5,370.5 Z"/></g>
<g><path style="opacity:0.004" fill="#3f403f" d="M 127.5,312.5 C 128.833,313.167 128.833,313.167 127.5,312.5 Z"/></g>
<g><path style="opacity:0.004" fill="#414241" d="M 85.5,319.5 C 84.8333,320.167 84.8333,320.167 85.5,319.5 Z"/></g>
<g><path style="opacity:1" fill="#bc1c38" d="M 193.5,319.5 C 206.037,321.141 218.37,323.808 230.5,327.5C 230.5,328.5 230.5,329.5 230.5,330.5C 223.396,329.14 216.396,327.307 209.5,325C 203.633,324.557 197.966,323.724 192.5,322.5C 192.5,322.167 192.5,321.833 192.5,321.5C 193.338,321.158 193.672,320.492 193.5,319.5 Z"/></g>
<g><path style="opacity:0.004" fill="#3f403f" d="M 83.5,327.5 C 83.8333,327.5 84.1667,327.5 84.5,327.5C 84.3147,328.17 83.9813,328.17 83.5,327.5 Z"/></g>
<g><path style="opacity:1" fill="#bc1c38" d="M 190.5,324.5 C 200.65,326.27 210.65,328.77 220.5,332C 222.405,332.826 222.739,333.993 221.5,335.5C 211.767,332.7 202.1,329.7 192.5,326.5C 191.287,326.253 190.62,325.586 190.5,324.5 Z"/></g>
<g><path style="opacity:1" fill="#563a3e" d="M 267.5,335.5 C 267.158,336.338 266.492,336.672 265.5,336.5C 259.725,333.893 254.058,331.06 248.5,328C 255.728,328.243 262.062,330.743 267.5,335.5 Z"/></g>
<g><path style="opacity:0.004" fill="#3f403f" d="M 86.5,336.5 C 87.8333,337.167 87.8333,337.167 86.5,336.5 Z"/></g>
<g><path style="opacity:1" fill="#79303c" d="M 267.5,335.5 C 270.255,336.631 272.589,338.298 274.5,340.5C 272.844,339.854 271.177,339.187 269.5,338.5C 268.353,338.818 267.519,339.484 267,340.5C 266.601,340.272 266.435,339.938 266.5,339.5C 266.443,338.391 266.11,337.391 265.5,336.5C 266.492,336.672 267.158,336.338 267.5,335.5 Z"/></g>
<g><path style="opacity:0.059" fill="#3f3f3f" d="M 109.5,344.5 C 104.555,343.276 99.5546,342.11 94.5,341C 93.4829,339.951 93.3162,338.784 94,337.5C 98.653,339.261 103.486,340.761 108.5,342C 109.252,342.671 109.586,343.504 109.5,344.5 Z"/></g>
<g><path style="opacity:0.004" fill="#3f403f" d="M 89.5,338.5 C 90.8333,339.167 90.8333,339.167 89.5,338.5 Z"/></g>
<g><path style="opacity:0.043" fill="#414141" d="M 43.5,344.5 C 43.1667,343.167 42.8333,343.167 42.5,344.5C 38.5216,346.011 36.1883,344.678 35.5,340.5C 38.8166,340.781 41.9832,340.781 45,340.5C 48.1316,342.616 47.6316,343.949 43.5,344.5 Z"/></g>
<g><path style="opacity:1" fill="#563f42" d="M 341.5,344.5 C 342.625,345.652 342.625,346.652 341.5,347.5C 334.827,345.076 328.494,341.909 322.5,338C 324.913,337.516 327.246,337.85 329.5,339C 333.302,341.382 337.302,343.216 341.5,344.5 Z"/></g>
<g><path style="opacity:0.004" fill="#3f403f" d="M 48.5,341.5 C 49.8333,342.167 49.8333,342.167 48.5,341.5 Z"/></g>
<g><path style="opacity:0.01" fill="#3f403f" d="M 50.5,343.5 C 51.6009,342.402 52.9343,342.235 54.5,343C 53.2068,343.49 51.8734,343.657 50.5,343.5 Z"/></g>
<g><path style="opacity:0.004" fill="#3f403f" d="M 100.5,344.5 C 101.833,345.167 101.833,345.167 100.5,344.5 Z"/></g>
<g><path style="opacity:0.004" fill="#3f403f" d="M 109.5,344.5 C 109.833,344.5 110.167,344.5 110.5,344.5C 110.315,345.17 109.981,345.17 109.5,344.5 Z"/></g>
<g><path style="opacity:1" fill="#7b2f3c" d="M 193.5,345.5 C 192.417,345.461 191.417,345.127 190.5,344.5C 189.537,344.97 189.537,345.637 190.5,346.5C 188.837,348.438 188.171,350.772 188.5,353.5C 185.343,353.921 183.01,352.755 181.5,350C 183.888,349.395 186.221,348.062 188.5,346C 186.75,344.681 184.75,344.181 182.5,344.5C 182.082,343.778 181.416,343.278 180.5,343C 182.5,342.667 184.5,342.333 186.5,342C 186.957,341.586 187.291,341.086 187.5,340.5C 186.471,340.704 185.471,340.204 184.5,339C 185.365,337.146 186.365,335.313 187.5,333.5C 188.506,333.938 188.506,334.604 187.5,335.5C 191.087,336.478 193.754,338.644 195.5,342C 194.359,342.741 194.359,343.575 195.5,344.5C 195.043,345.298 194.376,345.631 193.5,345.5 Z"/></g>
<g><path style="opacity:0.004" fill="#3f403f" d="M 105.5,345.5 C 106.833,346.167 106.833,346.167 105.5,345.5 Z"/></g>
<g><path style="opacity:1" fill="#65383f" d="M 341.5,344.5 C 345.787,344.476 349.453,345.81 352.5,348.5C 353.494,352.15 352.66,352.15 350,348.5C 349.768,349.737 349.268,350.737 348.5,351.5C 346.278,351.822 344.444,351.155 343,349.5C 342.683,354.74 341.183,355.407 338.5,351.5C 340.912,351.306 341.912,349.973 341.5,347.5C 342.625,346.652 342.625,345.652 341.5,344.5 Z"/></g>
<g><path style="opacity:0.004" fill="#3f403f" d="M 26.5,349.5 C 25.8333,348.167 25.8333,348.167 26.5,349.5 Z"/></g>
<g><path style="opacity:1" fill="#b21f39" d="M 193.5,345.5 C 194.772,346.434 196.272,347.101 198,347.5C 200.65,346.29 202.15,347.29 202.5,350.5C 200.883,349.962 199.216,349.629 197.5,349.5C 195.085,348.695 192.751,347.695 190.5,346.5C 189.537,345.637 189.537,344.97 190.5,344.5C 191.417,345.127 192.417,345.461 193.5,345.5 Z"/></g>
<g><path style="opacity:1" fill="#5e3d42" d="M 333.5,350.5 C 334.401,351.29 335.068,352.29 335.5,353.5C 334.733,354.172 334.066,355.005 333.5,356C 334.756,356.417 335.423,357.25 335.5,358.5C 333.95,357.559 332.284,356.893 330.5,356.5C 325.76,353.615 321.094,350.448 316.5,347C 313.783,342.616 310.116,339.282 305.5,337C 306.908,336.685 308.241,337.018 309.5,338C 314.558,342.057 319.892,345.724 325.5,349C 326.449,349.617 327.282,349.451 328,348.5C 329.351,350.019 330.851,351.352 332.5,352.5C 333.298,352.043 333.631,351.376 333.5,350.5 Z"/></g>
<g><path style="opacity:1" fill="#4c3f41" d="M 352.5,348.5 C 354.482,348.995 356.482,349.495 358.5,350C 364.208,354.355 370.542,357.355 377.5,359C 380.662,361.158 383.662,363.325 386.5,365.5C 385.488,367.1 385.988,368.434 388,369.5C 388.414,369.043 388.914,368.709 389.5,368.5C 390.243,369.908 391.077,371.241 392,372.5C 393.268,372.384 394.602,372.051 396,371.5C 396.915,372.328 397.581,373.328 398,374.5C 398.667,373.167 399.333,373.167 400,374.5C 400.464,373.906 400.631,373.239 400.5,372.5C 401.338,372.842 401.672,373.508 401.5,374.5C 401.351,375.552 401.517,376.552 402,377.5C 404.056,378.583 405.389,380.25 406,382.5C 407.356,383.38 408.856,383.714 410.5,383.5C 414.249,386.589 418.249,389.256 422.5,391.5C 422.5,392.167 422.5,392.833 422.5,393.5C 421.448,393.351 420.448,393.517 419.5,394C 421.056,396.501 420.389,398.001 417.5,398.5C 417.698,396.425 417.865,394.425 418,392.5C 415.419,391.167 413.252,389.334 411.5,387C 410.552,386.517 409.552,386.351 408.5,386.5C 408.784,388.415 408.451,390.081 407.5,391.5C 407.25,389.326 406.25,387.659 404.5,386.5C 402.856,386.286 401.356,386.62 400,387.5C 398.615,386.449 397.615,385.116 397,383.5C 396.586,383.957 396.086,384.291 395.5,384.5C 394.52,383.019 393.353,381.685 392,380.5C 391.617,381.056 391.117,381.389 390.5,381.5C 384.906,376.977 380.239,371.644 376.5,365.5C 376.167,365.833 375.833,366.167 375.5,366.5C 379.518,374.082 378.852,374.415 373.5,367.5C 372.692,367.808 372.025,368.308 371.5,369C 372.413,370.414 372.413,371.914 371.5,373.5C 369.887,373.944 368.72,374.944 368,376.5C 367.5,375.333 366.667,374.5 365.5,374C 366.833,373.333 366.833,372.667 365.5,372C 366.737,371.768 367.737,371.268 368.5,370.5C 369.833,370.5 370.5,369.833 370.5,368.5C 372.852,366.374 372.519,364.374 369.5,362.5C 368.749,363.376 368.249,364.376 368,365.5C 366.883,364.051 366.216,362.384 366,360.5C 365.901,362.653 365.067,364.319 363.5,365.5C 362.14,363.019 361.14,363.352 360.5,366.5C 360.167,366.5 359.833,366.5 359.5,366.5C 359.167,365.833 358.833,365.167 358.5,364.5C 357.851,362.523 357.851,360.69 358.5,359C 357.898,357.437 357.065,357.604 356,359.5C 355.51,358.207 355.343,356.873 355.5,355.5C 354.448,355.649 353.448,355.483 352.5,355C 350.681,354.26 349.348,353.093 348.5,351.5C 349.268,350.737 349.768,349.737 350,348.5C 352.66,352.15 353.494,352.15 352.5,348.5 Z"/></g>
<g><path style="opacity:1" fill="#792f3c" d="M 197.5,349.5 C 199.216,349.629 200.883,349.962 202.5,350.5C 205.385,351.807 207.718,353.807 209.5,356.5C 206.543,356.244 203.876,355.244 201.5,353.5C 200.334,355.387 199.668,357.053 199.5,358.5C 197.866,358.032 196.7,357.032 196,355.5C 195.667,355.833 195.333,356.167 195,356.5C 194.355,355.354 193.522,354.354 192.5,353.5C 193.651,352.269 194.817,352.269 196,353.5C 196.456,352.256 195.956,351.423 194.5,351C 195.737,350.768 196.737,350.268 197.5,349.5 Z"/></g>
<g><path style="opacity:0.016" fill="#3f403f" d="M 46.5,352.5 C 46.8333,352.5 47.1667,352.5 47.5,352.5C 47.1667,355.167 46.8333,355.167 46.5,352.5 Z"/></g>
<g><path style="opacity:1" fill="#7f2e3c" d="M 180.5,347.5 C 180.714,349.144 180.38,350.644 179.5,352C 180.942,352.377 181.942,353.21 182.5,354.5C 180.798,355.075 179.131,355.908 177.5,357C 179.376,358.375 181.376,359.542 183.5,360.5C 182.095,360.76 180.762,361.093 179.5,361.5C 177.079,361.122 174.746,360.455 172.5,359.5C 172.918,358.778 173.584,358.278 174.5,358C 173.978,357.439 173.645,356.772 173.5,356C 175.06,353.711 176.227,351.211 177,348.5C 178.011,347.663 179.178,347.33 180.5,347.5 Z"/></g>
<g><path style="opacity:1" fill="#c71537" d="M 202.5,350.5 C 205.788,350.016 208.455,351.016 210.5,353.5C 212.426,354.486 214.426,355.486 216.5,356.5C 217.5,356.833 218.167,357.5 218.5,358.5C 218.5,359.167 218.167,359.5 217.5,359.5C 217.167,359.5 216.833,359.5 216.5,359.5C 215.035,358.263 213.368,357.263 211.5,356.5C 210.833,356.5 210.167,356.5 209.5,356.5C 207.718,353.807 205.385,351.807 202.5,350.5 Z"/></g>
<g><path style="opacity:1" fill="#802f3d" d="M 338.5,351.5 C 341.183,355.407 342.683,354.74 343,349.5C 344.444,351.155 346.278,351.822 348.5,351.5C 349.348,353.093 350.681,354.26 352.5,355C 353.448,355.483 354.448,355.649 355.5,355.5C 355.343,356.873 355.51,358.207 356,359.5C 357.065,357.604 357.898,357.437 358.5,359C 357.851,360.69 357.851,362.523 358.5,364.5C 356.549,363.284 355.049,361.618 354,359.5C 353.667,360.167 353.333,360.833 353,361.5C 351.649,359.981 350.149,358.648 348.5,357.5C 347.478,357.855 346.811,358.522 346.5,359.5C 343.546,357.72 340.713,355.72 338,353.5C 337.667,354.167 337.333,354.833 337,355.5C 336.722,354.584 336.222,353.918 335.5,353.5C 335.068,352.29 334.401,351.29 333.5,350.5C 335.547,346.727 337.213,347.06 338.5,351.5 Z"/></g>
<g><path style="opacity:0.004" fill="#3f403f" d="M 30.5,355.5 C 31.8333,356.167 31.8333,356.167 30.5,355.5 Z"/></g>
<g><path style="opacity:0.118" fill="#3f403f" d="M 36.5,356.5 C 37.552,356.351 38.552,356.517 39.5,357C 38.0569,358.067 36.7236,359.234 35.5,360.5C 32.4931,360.16 29.4931,360.16 26.5,360.5C 26.5,359.5 26.5,358.5 26.5,357.5C 30.0419,357.813 33.3752,357.479 36.5,356.5 Z"/></g>
<g><path style="opacity:1" fill="#c51838" d="M 358.5,364.5 C 358.833,365.167 359.167,365.833 359.5,366.5C 354.716,364.942 350.382,362.609 346.5,359.5C 346.811,358.522 347.478,357.855 348.5,357.5C 350.149,358.648 351.649,359.981 353,361.5C 353.333,360.833 353.667,360.167 354,359.5C 355.049,361.618 356.549,363.284 358.5,364.5 Z"/></g>
<g><path style="opacity:1" fill="#c11938" d="M 330.5,356.5 C 332.284,356.893 333.95,357.559 335.5,358.5C 336.429,359.315 337.429,360.148 338.5,361C 337.167,361.667 337.167,362.333 338.5,363C 340.754,364.377 342.92,365.877 345,367.5C 345.749,368.635 345.583,369.635 344.5,370.5C 338.086,366.918 332.086,362.751 326.5,358C 323.842,356.522 321.175,355.355 318.5,354.5C 319.93,354.579 321.264,354.246 322.5,353.5C 324.833,354.833 327.167,356.167 329.5,357.5C 330.107,357.376 330.44,357.043 330.5,356.5 Z"/></g>
<g><path style="opacity:1" fill="#c41738" d="M 172.5,359.5 C 174.746,360.455 177.079,361.122 179.5,361.5C 180.82,362.942 182.486,363.608 184.5,363.5C 185.239,363.369 185.906,363.536 186.5,364C 186.026,365.729 185.026,366.895 183.5,367.5C 179.016,366.35 175.016,364.35 171.5,361.5C 171.328,360.508 171.662,359.842 172.5,359.5 Z"/></g>
<g><path style="opacity:0.004" fill="#414241" d="M 54.5,362.5 C 54.8333,362.5 55.1667,362.5 55.5,362.5C 55.3147,363.17 54.9813,363.17 54.5,362.5 Z"/></g>
<g><path style="opacity:1" fill="#533b3e" d="M 182.5,344.5 C 184.75,344.181 186.75,344.681 188.5,346C 186.221,348.062 183.888,349.395 181.5,350C 183.01,352.755 185.343,353.921 188.5,353.5C 188.171,350.772 188.837,348.438 190.5,346.5C 192.751,347.695 195.085,348.695 197.5,349.5C 196.737,350.268 195.737,350.768 194.5,351C 195.956,351.423 196.456,352.256 196,353.5C 194.817,352.269 193.651,352.269 192.5,353.5C 193.522,354.354 194.355,355.354 195,356.5C 195.333,356.167 195.667,355.833 196,355.5C 196.7,357.032 197.866,358.032 199.5,358.5C 199.668,357.053 200.334,355.387 201.5,353.5C 203.876,355.244 206.543,356.244 209.5,356.5C 210.167,356.5 210.833,356.5 211.5,356.5C 211.631,357.376 211.298,358.043 210.5,358.5C 208.097,357.296 205.764,356.962 203.5,357.5C 206.436,358.115 209.103,359.282 211.5,361C 209.099,361.805 209.266,362.638 212,363.5C 212.236,361.881 213.069,360.881 214.5,360.5C 214.842,359.662 215.508,359.328 216.5,359.5C 216.833,359.5 217.167,359.5 217.5,359.5C 218.718,360.161 220.051,360.828 221.5,361.5C 221.291,362.086 220.957,362.586 220.5,363C 221.935,362.689 223.268,362.855 224.5,363.5C 224.579,361.872 224.912,360.205 225.5,358.5C 225.938,358.565 226.272,358.399 226.5,358C 224.668,357.252 223.001,356.252 221.5,355C 223.769,353.193 225.603,353.693 227,356.5C 227.333,355.833 227.667,355.167 228,354.5C 232.696,355.914 233.196,355.414 229.5,353C 230,352.833 230.5,352.667 231,352.5C 233.419,353.554 235.252,355.22 236.5,357.5C 235.957,357.56 235.624,357.893 235.5,358.5C 236.5,359.5 237.5,360.5 238.5,361.5C 238.998,360.397 239.331,359.397 239.5,358.5C 241.931,360.19 244.265,360.357 246.5,359C 243.986,357.748 241.32,357.248 238.5,357.5C 238.918,356.778 239.584,356.278 240.5,356C 240.167,355.667 239.833,355.333 239.5,355C 243.353,354.813 247.02,355.313 250.5,356.5C 248.348,357.077 248.015,358.244 249.5,360C 248.5,360.333 247.5,360.667 246.5,361C 249.377,362.127 252.377,362.794 255.5,363C 256.056,363.383 256.389,363.883 256.5,364.5C 253.446,363.679 250.446,363.679 247.5,364.5C 249.078,365.298 250.744,365.798 252.5,366C 250.744,366.202 249.078,366.702 247.5,367.5C 248.167,368.167 248.833,368.833 249.5,369.5C 248.873,370.417 248.539,371.417 248.5,372.5C 248.167,372.5 247.833,372.5 247.5,372.5C 247.649,371.448 247.483,370.448 247,369.5C 246.23,370.598 245.397,370.598 244.5,369.5C 243.426,367.716 241.76,366.549 239.5,366C 240.96,365.189 241.293,364.355 240.5,363.5C 238.607,362.945 236.94,363.612 235.5,365.5C 233.821,364.06 231.821,363.06 229.5,362.5C 226.441,362.667 225.441,364.001 226.5,366.5C 227.251,365.624 227.751,364.624 228,363.5C 229.487,364.253 229.654,365.086 228.5,366C 230.846,365.208 233.179,365.375 235.5,366.5C 237.826,367.145 239.493,368.478 240.5,370.5C 238.666,369.506 236.999,369.506 235.5,370.5C 229.403,370.085 223.403,368.919 217.5,367C 219.664,367.914 221.664,369.081 223.5,370.5C 223.113,371.72 222.28,372.387 221,372.5C 219.238,372.056 219.405,371.556 221.5,371C 220.241,370.018 218.908,369.685 217.5,370C 218.641,370.741 218.641,371.575 217.5,372.5C 220.028,373.816 220.028,374.983 217.5,376C 219.047,377.387 220.713,378.553 222.5,379.5C 222.217,380.289 221.717,380.956 221,381.5C 218.203,381.645 215.37,380.978 212.5,379.5C 216.13,378.482 216.463,376.649 213.5,374C 210.252,373.329 209.919,373.829 212.5,375.5C 212.167,375.833 211.833,376.167 211.5,376.5C 209.169,374.601 206.502,373.434 203.5,373C 204.696,372.346 204.696,371.846 203.5,371.5C 200.214,375.567 201.214,377.9 206.5,378.5C 206.953,379.458 207.619,380.292 208.5,381C 218.55,383.359 227.883,387.359 236.5,393C 236,393.167 235.5,393.333 235,393.5C 214.241,386.086 193.741,378.419 173.5,370.5C 173.108,368.821 172.608,367.154 172,365.5C 169.066,364.577 168.9,363.244 171.5,361.5C 175.016,364.35 179.016,366.35 183.5,367.5C 182.438,368.575 182.438,369.575 183.5,370.5C 185.246,368.146 187.579,367.146 190.5,367.5C 190.833,367.5 191.167,367.5 191.5,367.5C 191.918,368.222 192.584,368.722 193.5,369C 191.343,369.078 189.343,369.245 187.5,369.5C 190.734,370.041 193.567,371.374 196,373.5C 197.209,373.347 198.375,373.014 199.5,372.5C 199.953,371.542 200.619,370.708 201.5,370C 200.549,369.282 200.383,368.449 201,367.5C 202.667,368.5 204.333,369.5 206,370.5C 205.852,369.175 206.018,368.008 206.5,367C 204.421,365.36 202.088,364.194 199.5,363.5C 198.295,364.577 197.628,365.91 197.5,367.5C 196.849,368.091 196.182,368.757 195.5,369.5C 194.818,368.757 194.151,368.091 193.5,367.5C 193.5,366.833 193.167,366.5 192.5,366.5C 192.516,364.371 191.849,362.538 190.5,361C 192.966,360.07 192.799,359.237 190,358.5C 188.779,359.272 187.779,360.272 187,361.5C 185.187,360.391 184.354,361.058 184.5,363.5C 182.486,363.608 180.82,362.942 179.5,361.5C 180.762,361.093 182.095,360.76 183.5,360.5C 181.376,359.542 179.376,358.375 177.5,357C 179.131,355.908 180.798,355.075 182.5,354.5C 181.942,353.21 180.942,352.377 179.5,352C 180.38,350.644 180.714,349.144 180.5,347.5C 180.586,346.504 180.252,345.671 179.5,345C 180.448,344.517 181.448,344.351 182.5,344.5 Z"/></g>
<g><path style="opacity:1" fill="#a3223a" d="M 214.5,360.5 C 215.922,360.709 217.255,361.209 218.5,362C 216.537,362.844 215.204,362.344 214.5,360.5 Z"/></g>
<g><path style="opacity:1" fill="#9b243a" d="M 195.5,360.5 C 197.225,361.278 198.891,361.611 200.5,361.5C 199.667,361.833 198.833,362.167 198,362.5C 196.624,362.316 195.791,361.649 195.5,360.5 Z"/></g>
<g><path style="opacity:1" fill="#802c3c" d="M 192.5,366.5 C 190.858,365.133 189.192,364.799 187.5,365.5C 188.602,366.176 189.602,366.842 190.5,367.5C 187.579,367.146 185.246,368.146 183.5,370.5C 182.438,369.575 182.438,368.575 183.5,367.5C 185.026,366.895 186.026,365.729 186.5,364C 185.906,363.536 185.239,363.369 184.5,363.5C 184.354,361.058 185.187,360.391 187,361.5C 187.779,360.272 188.779,359.272 190,358.5C 192.799,359.237 192.966,360.07 190.5,361C 191.849,362.538 192.516,364.371 192.5,366.5 Z"/></g>
<g><path style="opacity:1" fill="#882b3b" d="M 236.5,357.5 C 237.167,357.5 237.833,357.5 238.5,357.5C 241.32,357.248 243.986,357.748 246.5,359C 244.265,360.357 241.931,360.19 239.5,358.5C 239.331,359.397 238.998,360.397 238.5,361.5C 237.5,360.5 236.5,359.5 235.5,358.5C 235.624,357.893 235.957,357.56 236.5,357.5 Z"/></g>
<g><path style="opacity:1" fill="#892a3b" d="M 218.5,358.5 C 220.451,358.227 221.951,358.893 223,360.5C 223.417,359.244 224.25,358.577 225.5,358.5C 224.912,360.205 224.579,361.872 224.5,363.5C 223.268,362.855 221.935,362.689 220.5,363C 220.957,362.586 221.291,362.086 221.5,361.5C 220.051,360.828 218.718,360.161 217.5,359.5C 218.167,359.5 218.5,359.167 218.5,358.5 Z"/></g>
<g><path style="opacity:1" fill="#8a2a3b" d="M 211.5,356.5 C 213.368,357.263 215.035,358.263 216.5,359.5C 215.508,359.328 214.842,359.662 214.5,360.5C 213.069,360.881 212.236,361.881 212,363.5C 209.266,362.638 209.099,361.805 211.5,361C 209.103,359.282 206.436,358.115 203.5,357.5C 205.764,356.962 208.097,357.296 210.5,358.5C 211.298,358.043 211.631,357.376 211.5,356.5 Z"/></g>
<g><path style="opacity:1" fill="#862d3b" d="M 182.5,354.5 C 185.673,354.401 188.673,355.068 191.5,356.5C 189.328,356.676 186.995,356.843 184.5,357C 185.624,357.249 186.624,357.749 187.5,358.5C 184.325,359.387 182.658,358.054 182.5,354.5 Z"/></g>
<g><path style="opacity:1" fill="#94263a" d="M 216.5,356.5 C 214.426,355.486 212.426,354.486 210.5,353.5C 213.912,351.663 215.912,352.663 216.5,356.5 Z"/></g>
<g><path style="opacity:1" fill="#b31c39" d="M 181.5,346.5 C 182.386,345.224 183.386,345.224 184.5,346.5C 183.575,347.562 182.575,347.562 181.5,346.5 Z"/></g>
<g><path style="opacity:1" fill="#862b3b" d="M 235.5,365.5 C 235.5,365.833 235.5,366.167 235.5,366.5C 233.179,365.375 230.846,365.208 228.5,366C 229.654,365.086 229.487,364.253 228,363.5C 227.751,364.624 227.251,365.624 226.5,366.5C 225.441,364.001 226.441,362.667 229.5,362.5C 231.821,363.06 233.821,364.06 235.5,365.5 Z"/></g>
<g><path style="opacity:1" fill="#6d343e" d="M 370.5,368.5 C 369.527,367.209 368.527,367.209 367.5,368.5C 366.201,367.306 364.868,366.306 363.5,365.5C 365.067,364.319 365.901,362.653 366,360.5C 366.216,362.384 366.883,364.051 368,365.5C 368.249,364.376 368.749,363.376 369.5,362.5C 372.519,364.374 372.852,366.374 370.5,368.5 Z"/></g>
<g><path style="opacity:1" fill="#ca1337" d="M 192.5,366.5 C 193.167,366.5 193.5,366.833 193.5,367.5C 192.833,367.5 192.167,367.5 191.5,367.5C 191.167,367.5 190.833,367.5 190.5,367.5C 189.602,366.842 188.602,366.176 187.5,365.5C 189.192,364.799 190.858,365.133 192.5,366.5 Z"/></g>
<g><path style="opacity:0.004" fill="#424342" d="M 61.5,366.5 C 60.8333,367.167 60.8333,367.167 61.5,366.5 Z"/></g>
<g><path style="opacity:1" fill="#b91a38" d="M 244.5,369.5 C 244.631,370.239 244.464,370.906 244,371.5C 242.989,370.663 241.822,370.33 240.5,370.5C 239.493,368.478 237.826,367.145 235.5,366.5C 235.5,366.167 235.5,365.833 235.5,365.5C 236.94,363.612 238.607,362.945 240.5,363.5C 241.293,364.355 240.96,365.189 239.5,366C 241.76,366.549 243.426,367.716 244.5,369.5 Z"/></g>
<g><path style="opacity:1" fill="#bf1a38" d="M 363.5,365.5 C 364.868,366.306 366.201,367.306 367.5,368.5C 368.527,367.209 369.527,367.209 370.5,368.5C 370.5,369.833 369.833,370.5 368.5,370.5C 365.515,369.674 362.849,368.341 360.5,366.5C 361.14,363.352 362.14,363.019 363.5,365.5 Z"/></g>
<g><path style="opacity:1" fill="#6a353d" d="M 288.5,369.5 C 286.402,368.065 284.069,366.898 281.5,366C 286.307,365.697 290.64,367.031 294.5,370C 292.512,370.18 290.512,370.014 288.5,369.5 Z"/></g>
<g><path style="opacity:1" fill="#93273b" d="M 191.5,367.5 C 192.167,367.5 192.833,367.5 193.5,367.5C 194.151,368.091 194.818,368.757 195.5,369.5C 196.182,368.757 196.849,368.091 197.5,367.5C 198.478,367.811 199.145,368.478 199.5,369.5C 198.347,370.687 198.347,371.687 199.5,372.5C 198.375,373.014 197.209,373.347 196,373.5C 193.567,371.374 190.734,370.041 187.5,369.5C 189.343,369.245 191.343,369.078 193.5,369C 192.584,368.722 191.918,368.222 191.5,367.5 Z"/></g>
<g><path style="opacity:1" fill="#6f313d" d="M 199.5,372.5 C 198.347,371.687 198.347,370.687 199.5,369.5C 199.145,368.478 198.478,367.811 197.5,367.5C 197.628,365.91 198.295,364.577 199.5,363.5C 202.088,364.194 204.421,365.36 206.5,367C 206.018,368.008 205.852,369.175 206,370.5C 204.333,369.5 202.667,368.5 201,367.5C 200.383,368.449 200.549,369.282 201.5,370C 200.619,370.708 199.953,371.542 199.5,372.5 Z"/></g>
<g><path style="opacity:1" fill="#842d3c" d="M 256.5,364.5 C 256.423,365.75 255.756,366.583 254.5,367C 255.308,367.308 255.975,367.808 256.5,368.5C 255.652,370.409 255.318,372.409 255.5,374.5C 253.167,373.833 250.833,373.167 248.5,372.5C 248.539,371.417 248.873,370.417 249.5,369.5C 248.833,368.833 248.167,368.167 247.5,367.5C 249.078,366.702 250.744,366.202 252.5,366C 250.744,365.798 249.078,365.298 247.5,364.5C 250.446,363.679 253.446,363.679 256.5,364.5 Z"/></g>
<g><path style="opacity:1" fill="#72313d" d="M 250.5,356.5 C 251.189,357.774 252.023,357.774 253,356.5C 254.334,361.78 258.168,364.114 264.5,363.5C 264.634,365.292 264.301,366.958 263.5,368.5C 262.71,369.401 261.71,370.068 260.5,370.5C 259.365,369.526 258.365,368.359 257.5,367C 258.549,366.508 259.549,366.674 260.5,367.5C 261.583,366.635 261.749,365.635 261,364.5C 259.586,365.413 258.086,365.413 256.5,364.5C 256.389,363.883 256.056,363.383 255.5,363C 252.377,362.794 249.377,362.127 246.5,361C 247.5,360.667 248.5,360.333 249.5,360C 248.015,358.244 248.348,357.077 250.5,356.5 Z"/></g>
<g><path style="opacity:0.988" fill="#cc1537" d="M 167.5,369.5 C 169.621,369.325 171.621,369.659 173.5,370.5C 193.741,378.419 214.241,386.086 235,393.5C 235.5,393.333 236,393.167 236.5,393C 227.883,387.359 218.55,383.359 208.5,381C 207.619,380.292 206.953,379.458 206.5,378.5C 206.435,378.062 206.601,377.728 207,377.5C 208.444,379.155 210.278,379.822 212.5,379.5C 215.37,380.978 218.203,381.645 221,381.5C 221.717,380.956 222.217,380.289 222.5,379.5C 223.492,379.328 224.158,379.662 224.5,380.5C 223.711,380.783 223.044,381.283 222.5,382C 223.91,383.372 225.577,384.205 227.5,384.5C 237.592,390.602 247.925,396.435 258.5,402C 272.666,405.76 285.666,411.593 297.5,419.5C 295.214,419.595 293.214,420.262 291.5,421.5C 290.209,421.263 289.209,421.596 288.5,422.5C 288.167,422.5 287.833,422.5 287.5,422.5C 280.719,418.889 274.052,415.056 267.5,411C 260.168,410.001 253.501,407.334 247.5,403C 244.479,402.151 241.479,401.317 238.5,400.5C 236.473,398.912 234.139,398.412 231.5,399C 233.488,399.938 235.488,400.772 237.5,401.5C 244.81,406.493 252.477,410.993 260.5,415C 261.381,415.708 262.047,416.542 262.5,417.5C 261.209,417.263 260.209,417.596 259.5,418.5C 250.406,413.257 241.406,407.757 232.5,402C 227.586,400.185 222.586,398.685 217.5,397.5C 218.381,394.989 217.381,393.322 214.5,392.5C 206.169,390.077 198.169,386.744 190.5,382.5C 189.482,383.193 188.482,383.859 187.5,384.5C 186.624,384.631 185.957,384.298 185.5,383.5C 186.376,382.749 187.376,382.249 188.5,382C 186.35,380.589 184.016,379.755 181.5,379.5C 179.22,377.777 176.553,377.111 173.5,377.5C 170.344,378.551 167.344,378.551 164.5,377.5C 165.566,375.299 166.233,372.965 166.5,370.5C 167.167,370.5 167.5,370.167 167.5,369.5 Z"/></g>
<g><path style="opacity:1" fill="#832e3b" d="M 244.5,369.5 C 245.397,370.598 246.23,370.598 247,369.5C 247.483,370.448 247.649,371.448 247.5,372.5C 247.158,373.338 246.492,373.672 245.5,373.5C 243.739,372.687 242.072,371.687 240.5,370.5C 241.822,370.33 242.989,370.663 244,371.5C 244.464,370.906 244.631,370.239 244.5,369.5 Z"/></g>
<g><path style="opacity:1" fill="#513b3e" d="M 263.5,368.5 C 265.39,369.18 267.39,369.347 269.5,369C 267.749,370.549 266.083,371.382 264.5,371.5C 267.626,371.984 270.293,373.317 272.5,375.5C 270.757,377.038 268.757,378.038 266.5,378.5C 266.5,377.5 266.5,376.5 266.5,375.5C 263.243,375.236 261.243,373.57 260.5,370.5C 261.71,370.068 262.71,369.401 263.5,368.5 Z"/></g>
<g><path style="opacity:1" fill="#73333e" d="M 386.5,365.5 C 387.482,366.141 388.482,366.807 389.5,367.5C 392.251,366.659 394.418,367.659 396,370.5C 398.108,369.388 399.608,370.054 400.5,372.5C 400.631,373.239 400.464,373.906 400,374.5C 399.333,373.167 398.667,373.167 398,374.5C 397.581,373.328 396.915,372.328 396,371.5C 394.602,372.051 393.268,372.384 392,372.5C 391.077,371.241 390.243,369.908 389.5,368.5C 388.914,368.709 388.414,369.043 388,369.5C 385.988,368.434 385.488,367.1 386.5,365.5 Z"/></g>
<g><path style="opacity:1" fill="#b21e39" d="M 235.5,370.5 C 236.999,369.506 238.666,369.506 240.5,370.5C 242.072,371.687 243.739,372.687 245.5,373.5C 242.549,373.713 239.882,373.046 237.5,371.5C 236.833,371.167 236.167,370.833 235.5,370.5 Z"/></g>
<g><path style="opacity:1" fill="#ce1337" d="M 247.5,372.5 C 247.833,372.5 248.167,372.5 248.5,372.5C 250.833,373.167 253.167,373.833 255.5,374.5C 254.465,376.205 254.465,377.872 255.5,379.5C 254.192,380.626 252.858,380.626 251.5,379.5C 249.085,378.695 246.751,377.695 244.5,376.5C 245.11,375.609 245.443,374.609 245.5,373.5C 246.492,373.672 247.158,373.338 247.5,372.5 Z"/></g>
<g><path style="opacity:1" fill="#58393e" d="M 288.5,369.5 C 291.114,371.59 291.114,373.757 288.5,376C 288.957,376.414 289.291,376.914 289.5,377.5C 288.738,377.911 287.738,378.077 286.5,378C 287.108,378.87 287.941,379.37 289,379.5C 292.228,379.29 295.395,379.29 298.5,379.5C 297.975,380.192 297.308,380.692 296.5,381C 296.982,382.008 297.148,383.175 297,384.5C 298.913,381.965 300.08,382.465 300.5,386C 300.164,387.03 299.497,387.53 298.5,387.5C 297.209,387.737 296.209,387.404 295.5,386.5C 291.167,384.693 287.167,382.193 283.5,379C 284.167,378.333 284.833,377.667 285.5,377C 281.085,376.177 280.752,375.01 284.5,373.5C 283.833,372.833 283.167,372.167 282.5,371.5C 283.274,370.289 284.107,370.289 285,371.5C 285.71,370.027 286.876,369.36 288.5,369.5 Z"/></g>
<g><path style="opacity:1" fill="#77303c" d="M 212.5,379.5 C 210.278,379.822 208.444,379.155 207,377.5C 206.601,377.728 206.435,378.062 206.5,378.5C 201.214,377.9 200.214,375.567 203.5,371.5C 204.696,371.846 204.696,372.346 203.5,373C 206.502,373.434 209.169,374.601 211.5,376.5C 211.833,376.167 212.167,375.833 212.5,375.5C 209.919,373.829 210.252,373.329 213.5,374C 216.463,376.649 216.13,378.482 212.5,379.5 Z"/></g>
<g><path style="opacity:1" fill="#c11838" d="M 203.5,375.5 C 204.251,374.427 205.251,374.26 206.5,375C 205.648,376.728 204.648,376.895 203.5,375.5 Z"/></g>
<g><path style="opacity:1" fill="#7d2e3c" d="M 237.5,371.5 C 239.882,373.046 242.549,373.713 245.5,373.5C 245.443,374.609 245.11,375.609 244.5,376.5C 242.521,374.832 240.188,374.166 237.5,374.5C 237.5,373.5 237.5,372.5 237.5,371.5 Z"/></g>
<g><path style="opacity:1" fill="#74323e" d="M 390.5,381.5 C 384.584,378.772 378.75,375.772 373,372.5C 372.617,373.056 372.117,373.389 371.5,373.5C 372.413,371.914 372.413,370.414 371.5,369C 372.025,368.308 372.692,367.808 373.5,367.5C 378.852,374.415 379.518,374.082 375.5,366.5C 375.833,366.167 376.167,365.833 376.5,365.5C 380.239,371.644 384.906,376.977 390.5,381.5 Z"/></g>
<g><path style="opacity:1" fill="#76303c" d="M 173.5,377.5 C 176.553,377.111 179.22,377.777 181.5,379.5C 181.062,379.435 180.728,379.601 180.5,380C 182.595,380.556 182.762,381.056 181,381.5C 178.497,380.001 175.997,378.667 173.5,377.5 Z"/></g>
<g><path style="opacity:1" fill="#5c383e" d="M 256.5,364.5 C 258.086,365.413 259.586,365.413 261,364.5C 261.749,365.635 261.583,366.635 260.5,367.5C 259.549,366.674 258.549,366.508 257.5,367C 258.365,368.359 259.365,369.526 260.5,370.5C 259.691,371.469 258.691,372.302 257.5,373C 261.462,374.211 262.129,376.211 259.5,379C 260.328,379.915 261.328,380.581 262.5,381C 265.5,381.333 268.5,381.667 271.5,382C 272.821,383.545 272.488,384.711 270.5,385.5C 270.167,384.833 269.833,384.167 269.5,383.5C 268.135,384.807 266.802,384.807 265.5,383.5C 263.106,382.985 260.772,382.319 258.5,381.5C 258.44,380.957 258.107,380.624 257.5,380.5C 256.205,381.098 254.872,381.598 253.5,382C 254.451,382.718 254.617,383.551 254,384.5C 251.434,383.379 250.6,381.712 251.5,379.5C 252.858,380.626 254.192,380.626 255.5,379.5C 254.465,377.872 254.465,376.205 255.5,374.5C 255.318,372.409 255.652,370.409 256.5,368.5C 255.975,367.808 255.308,367.308 254.5,367C 255.756,366.583 256.423,365.75 256.5,364.5 Z"/></g>
<g><path style="opacity:1" fill="#74313c" d="M 260.5,370.5 C 261.243,373.57 263.243,375.236 266.5,375.5C 266.5,376.5 266.5,377.5 266.5,378.5C 266.369,379.239 266.536,379.906 267,380.5C 268.388,379.446 269.888,379.28 271.5,380C 273.977,381.375 274.811,383.209 274,385.5C 274.915,384.672 275.581,383.672 276,382.5C 276.346,384.218 276.846,385.885 277.5,387.5C 277.376,388.107 277.043,388.44 276.5,388.5C 273.39,388.622 270.39,387.622 267.5,385.5C 265.425,387.585 265.425,389.419 267.5,391C 265.953,391.333 264.62,390.833 263.5,389.5C 262.893,389.624 262.56,389.957 262.5,390.5C 261.957,390.44 261.624,390.107 261.5,389.5C 263.162,388.673 264.495,387.507 265.5,386C 264.584,385.722 263.918,385.222 263.5,384.5C 264.492,384.672 265.158,384.338 265.5,383.5C 266.802,384.807 268.135,384.807 269.5,383.5C 269.833,384.167 270.167,384.833 270.5,385.5C 272.488,384.711 272.821,383.545 271.5,382C 268.5,381.667 265.5,381.333 262.5,381C 261.328,380.581 260.328,379.915 259.5,379C 262.129,376.211 261.462,374.211 257.5,373C 258.691,372.302 259.691,371.469 260.5,370.5 Z"/></g>
<g><path style="opacity:1" fill="#a72139" d="M 258.5,381.5 C 260.772,382.319 263.106,382.985 265.5,383.5C 265.158,384.338 264.492,384.672 263.5,384.5C 261.495,383.961 259.495,383.295 257.5,382.5C 257.624,381.893 257.957,381.56 258.5,381.5 Z"/></g>
<g><path style="opacity:1" fill="#75323e" d="M 401.5,374.5 C 404.009,376.255 406.676,377.755 409.5,379C 407.14,380.874 407.473,382.374 410.5,383.5C 408.856,383.714 407.356,383.38 406,382.5C 405.389,380.25 404.056,378.583 402,377.5C 401.517,376.552 401.351,375.552 401.5,374.5 Z"/></g>
<g><path style="opacity:1" fill="#6f333d" d="M 224.5,380.5 C 227.954,380.267 228.954,381.6 227.5,384.5C 225.577,384.205 223.91,383.372 222.5,382C 223.044,381.283 223.711,380.783 224.5,380.5 Z"/></g>
<g><path style="opacity:0.989" fill="#d60f37" d="M 160.5,386.5 C 163.57,386.368 166.57,386.701 169.5,387.5C 176.335,389.028 183.335,390.361 190.5,391.5C 190.842,392.338 191.508,392.672 192.5,392.5C 197.105,395.262 202.105,397.262 207.5,398.5C 208.93,398.421 210.264,398.754 211.5,399.5C 212.463,399.03 212.463,398.363 211.5,397.5C 213.389,398.38 215.389,398.38 217.5,397.5C 217.369,398.376 217.702,399.043 218.5,399.5C 222.75,400.785 226.417,402.785 229.5,405.5C 229.5,406.5 229.5,407.5 229.5,408.5C 232.493,409.486 235.493,410.486 238.5,411.5C 242.572,413.71 246.572,416.21 250.5,419C 253.327,420.664 256.327,421.83 259.5,422.5C 261.364,423.793 263.364,423.793 265.5,422.5C 265.043,421.702 264.376,421.369 263.5,421.5C 262.128,420.488 260.795,419.488 259.5,418.5C 260.209,417.596 261.209,417.263 262.5,417.5C 263.807,418.153 265.14,418.82 266.5,419.5C 268.648,418.242 270.815,418.242 273,419.5C 275.447,421.631 277.947,423.631 280.5,425.5C 256.047,436.289 235.714,452.289 219.5,473.5C 218.833,473.5 218.5,473.833 218.5,474.5C 215.185,477.125 212.851,480.458 211.5,484.5C 188.748,516.836 179.414,552.836 183.5,592.5C 137.167,592.5 90.8333,592.5 44.5,592.5C 44.5,567.167 44.5,541.833 44.5,516.5C 56.8279,515.67 68.4946,511.837 79.5,505C 109.529,486.629 131.363,461.129 145,428.5C 150.869,414.723 156.036,400.723 160.5,386.5 Z"/></g>
<g><path style="opacity:1" fill="#b91a38" d="M 189.5,388.5 C 188.508,388.672 187.842,388.338 187.5,387.5C 188.623,386.243 189.289,386.576 189.5,388.5 Z"/></g>
<g><path style="opacity:1" fill="#6f333e" d="M 404.5,386.5 C 404.029,387.901 403.362,389.234 402.5,390.5C 398.074,387.966 394.074,384.966 390.5,381.5C 391.117,381.389 391.617,381.056 392,380.5C 393.353,381.685 394.52,383.019 395.5,384.5C 396.086,384.291 396.586,383.957 397,383.5C 397.615,385.116 398.615,386.449 400,387.5C 401.356,386.62 402.856,386.286 404.5,386.5 Z"/></g>
<g><path style="opacity:0.013" fill="#d60f36" d="M 142.5,387.5 C 143.281,390.698 142.447,393.698 140,396.5C 139.903,393.284 140.736,390.284 142.5,387.5 Z"/></g>
<g><path style="opacity:1" fill="#7e2f3c" d="M 169.5,387.5 C 175.842,388.101 182.176,388.768 188.5,389.5C 189.167,390.167 189.833,390.833 190.5,391.5C 183.335,390.361 176.335,389.028 169.5,387.5 Z"/></g>
<g><path style="opacity:1" fill="#a0223a" d="M 295.5,386.5 C 296.209,387.404 297.209,387.737 298.5,387.5C 298.953,388.458 299.619,389.292 300.5,390C 300.167,390.167 299.833,390.333 299.5,390.5C 297.672,389.205 295.672,388.205 293.5,387.5C 293.957,386.702 294.624,386.369 295.5,386.5 Z"/></g>
<g><path style="opacity:1" fill="#5c383e" d="M 214.5,392.5 C 213.524,393.815 212.524,395.148 211.5,396.5C 208.556,391.608 204.389,389.608 199,390.5C 198.331,387.972 197.498,387.972 196.5,390.5C 200.406,391.074 204.073,392.24 207.5,394C 207.833,395 208.167,396 208.5,397C 209.448,397.483 210.448,397.649 211.5,397.5C 212.463,398.363 212.463,399.03 211.5,399.5C 210.264,398.754 208.93,398.421 207.5,398.5C 206.653,397.034 205.32,396.2 203.5,396C 205.901,395.195 205.734,394.362 203,393.5C 201.092,396.332 200.259,395.999 200.5,392.5C 197.833,393.833 195.167,393.833 192.5,392.5C 191.508,392.672 190.842,392.338 190.5,391.5C 189.833,390.833 189.167,390.167 188.5,389.5C 189.167,389.5 189.5,389.167 189.5,388.5C 189.289,386.576 188.623,386.243 187.5,387.5C 186.325,387.719 185.325,387.386 184.5,386.5C 185.602,385.824 186.602,385.158 187.5,384.5C 188.482,383.859 189.482,383.193 190.5,382.5C 198.169,386.744 206.169,390.077 214.5,392.5 Z"/></g>
<g><path style="opacity:1" fill="#b91a38" d="M 190.5,387.5 C 192.686,387.511 193.519,388.511 193,390.5C 191.583,389.922 190.75,388.922 190.5,387.5 Z"/></g>
<g><path style="opacity:1" fill="#513b3e" d="M 276.5,388.5 C 276.833,389.167 277.167,389.833 277.5,390.5C 271.498,389.042 271.165,389.708 276.5,392.5C 277.107,392.376 277.44,392.043 277.5,391.5C 281.43,392.437 281.43,393.437 277.5,394.5C 279.04,395.532 279.54,396.865 279,398.5C 277.184,397.671 275.351,396.837 273.5,396C 274.451,395.282 274.617,394.449 274,393.5C 273.167,394.5 272.333,395.5 271.5,396.5C 270.289,395.726 270.289,394.893 271.5,394C 270.391,393.362 269.225,392.862 268,392.5C 266.274,393.648 266.441,394.815 268.5,396C 266.447,396.325 264.447,395.991 262.5,395C 257.158,392.743 257.158,391.743 262.5,392C 263.738,391.31 263.738,390.81 262.5,390.5C 262.56,389.957 262.893,389.624 263.5,389.5C 264.62,390.833 265.953,391.333 267.5,391C 265.425,389.419 265.425,387.585 267.5,385.5C 270.39,387.622 273.39,388.622 276.5,388.5 Z"/></g>
<g><path style="opacity:1" fill="#a7213a" d="M 277.5,390.5 C 277.5,390.833 277.5,391.167 277.5,391.5C 277.44,392.043 277.107,392.376 276.5,392.5C 271.165,389.708 271.498,389.042 277.5,390.5 Z"/></g>
<g><path style="opacity:1" fill="#94283b" d="M 214.5,392.5 C 217.381,393.322 218.381,394.989 217.5,397.5C 215.389,398.38 213.389,398.38 211.5,397.5C 210.448,397.649 209.448,397.483 208.5,397C 208.167,396 207.833,395 207.5,394C 204.073,392.24 200.406,391.074 196.5,390.5C 197.498,387.972 198.331,387.972 199,390.5C 204.389,389.608 208.556,391.608 211.5,396.5C 212.524,395.148 213.524,393.815 214.5,392.5 Z"/></g>
<g><path style="opacity:1" fill="#78313e" d="M 417.5,398.5 C 417.5,398.833 417.5,399.167 417.5,399.5C 416.603,398.402 415.77,398.402 415,399.5C 412.851,396.341 410.017,394.008 406.5,392.5C 406.624,391.893 406.957,391.56 407.5,391.5C 408.451,390.081 408.784,388.415 408.5,386.5C 409.552,386.351 410.552,386.517 411.5,387C 413.252,389.334 415.419,391.167 418,392.5C 417.865,394.425 417.698,396.425 417.5,398.5 Z"/></g>
<g><path style="opacity:1" fill="#7e2d3c" d="M 308.5,390.5 C 310.25,391.742 311.917,393.242 313.5,395C 311.276,397.149 309.776,396.649 309,393.5C 307.129,394.668 305.629,394.168 304.5,392C 305.784,391.316 306.951,391.483 308,392.5C 308.464,391.906 308.631,391.239 308.5,390.5 Z"/></g>
<g><path style="opacity:1" fill="#92273b" d="M 192.5,392.5 C 195.167,393.833 197.833,393.833 200.5,392.5C 200.259,395.999 201.092,396.332 203,393.5C 205.734,394.362 205.901,395.195 203.5,396C 205.32,396.2 206.653,397.034 207.5,398.5C 202.105,397.262 197.105,395.262 192.5,392.5 Z"/></g>
<g><path style="opacity:1" fill="#a72139" d="M 312.5,398.5 C 311.609,399.11 310.609,399.443 309.5,399.5C 308.063,398.275 306.396,397.275 304.5,396.5C 303.167,395.833 303.167,395.167 304.5,394.5C 307.451,395.496 310.117,396.83 312.5,398.5 Z"/></g>
<g><path style="opacity:0.011" fill="#d60f36" d="M 137.5,397.5 C 140.063,398.998 140.063,400.665 137.5,402.5C 137.193,401.113 137.193,399.446 137.5,397.5 Z"/></g>
<g><path style="opacity:1" fill="#65353d" d="M 323.5,403.5 C 320.305,403.416 319.139,402.083 320,399.5C 318.938,401.208 317.771,401.874 316.5,401.5C 318.91,403.372 321.577,404.705 324.5,405.5C 322.653,406.573 320.653,406.573 318.5,405.5C 317.25,405.423 316.417,404.756 316,403.5C 315.667,403.833 315.333,404.167 315,404.5C 315,403.167 315,401.833 315,400.5C 312.765,401.98 310.932,401.647 309.5,399.5C 310.609,399.443 311.609,399.11 312.5,398.5C 313.822,398.33 314.989,398.663 316,399.5C 317.914,398.324 317.748,397.324 315.5,396.5C 317.061,395.653 318.561,395.986 320,397.5C 320.333,397.167 320.667,396.833 321,396.5C 321.333,397.833 321.667,399.167 322,400.5C 322.249,399.376 322.749,398.376 323.5,397.5C 323.032,399.113 323.699,400.613 325.5,402C 324.584,402.278 323.918,402.778 323.5,403.5 Z"/></g>
<g><path style="opacity:1" fill="#7d2d3c" d="M 238.5,400.5 C 237.833,400.5 237.5,400.833 237.5,401.5C 235.488,400.772 233.488,399.938 231.5,399C 234.139,398.412 236.473,398.912 238.5,400.5 Z"/></g>
<g><path style="opacity:1" fill="#ac213a" d="M 422.5,393.5 C 421.359,395.451 421.359,397.451 422.5,399.5C 421.761,399.369 421.094,399.536 420.5,400C 421.451,400.718 421.617,401.551 421,402.5C 419.482,401.837 418.315,400.837 417.5,399.5C 417.5,399.167 417.5,398.833 417.5,398.5C 420.389,398.001 421.056,396.501 419.5,394C 420.448,393.517 421.448,393.351 422.5,393.5 Z"/></g>
<g><path style="opacity:1" fill="#af1d39" d="M 323.5,403.5 C 323.833,404.167 324.167,404.833 324.5,405.5C 321.577,404.705 318.91,403.372 316.5,401.5C 317.771,401.874 318.938,401.208 320,399.5C 319.139,402.083 320.305,403.416 323.5,403.5 Z"/></g>
<g><path style="opacity:1" fill="#91273c" d="M 424.5,401.5 C 425.995,401.989 427.329,402.655 428.5,403.5C 427.07,403.421 425.736,403.754 424.5,404.5C 423.438,403.575 423.438,402.575 424.5,401.5 Z"/></g>
<g><path style="opacity:0.015" fill="#d60f36" d="M 135.5,403.5 C 136.497,403.47 137.164,403.97 137.5,405C 135.965,408.569 134.298,412.069 132.5,415.5C 132.167,414.833 131.833,414.167 131.5,413.5C 133.385,410.395 134.718,407.062 135.5,403.5 Z"/></g>
<g><path style="opacity:1" fill="#64353d" d="M 330.5,409.5 C 331.739,408.788 332.239,407.788 332,406.5C 330.855,407.684 329.688,407.684 328.5,406.5C 328.622,405.197 328.622,403.864 328.5,402.5C 330.618,403.946 332.951,404.613 335.5,404.5C 335.297,406.39 335.963,407.89 337.5,409C 335.699,409.317 335.366,409.984 336.5,411C 334.225,411.405 332.225,410.905 330.5,409.5 Z"/></g>
<g><path style="opacity:1" fill="#6f3740" d="M 422.5,391.5 C 428.941,395.43 435.275,399.597 441.5,404C 442.386,405.615 443.386,407.115 444.5,408.5C 443.078,408.291 441.745,407.791 440.5,407C 435.167,401.485 429.167,396.985 422.5,393.5C 422.5,392.833 422.5,392.167 422.5,391.5 Z"/></g>
<g><path style="opacity:1" fill="#4a3d3f" d="M 237.5,401.5 C 237.5,400.833 237.833,400.5 238.5,400.5C 241.479,401.317 244.479,402.151 247.5,403C 253.501,407.334 260.168,410.001 267.5,411C 274.052,415.056 280.719,418.889 287.5,422.5C 287.423,423.75 286.756,424.583 285.5,425C 283.866,425.494 282.199,425.66 280.5,425.5C 277.947,423.631 275.447,421.631 273,419.5C 270.815,418.242 268.648,418.242 266.5,419.5C 265.14,418.82 263.807,418.153 262.5,417.5C 262.047,416.542 261.381,415.708 260.5,415C 252.477,410.993 244.81,406.493 237.5,401.5 Z"/></g>
<g><path style="opacity:1" fill="#812c3c" d="M 318.5,405.5 C 320.653,406.573 322.653,406.573 324.5,405.5C 326.045,406.23 326.878,407.563 327,409.5C 327.513,408.473 328.013,407.473 328.5,406.5C 329.688,407.684 330.855,407.684 332,406.5C 332.239,407.788 331.739,408.788 330.5,409.5C 329.842,410.398 329.176,411.398 328.5,412.5C 325.956,409.82 322.623,407.487 318.5,405.5 Z"/></g>
<g><path style="opacity:1" fill="#882c3b" d="M 238.5,411.5 C 235.493,410.486 232.493,409.486 229.5,408.5C 229.5,407.5 229.5,406.5 229.5,405.5C 231.226,405.185 232.893,405.019 234.5,405C 236.913,407.063 238.246,409.23 238.5,411.5 Z"/></g>
<g><path style="opacity:1" fill="#90283c" d="M 429.5,404.5 C 431.522,406.456 433.855,407.956 436.5,409C 435.956,409.717 435.289,410.217 434.5,410.5C 432.745,409.928 431.078,409.094 429.5,408C 430.171,407.014 430.171,405.847 429.5,404.5 Z"/></g>
<g><path style="opacity:1" fill="#953a4b" d="M 444.5,408.5 C 446.196,408.685 447.529,409.519 448.5,411C 446.588,411.279 445.254,410.446 444.5,408.5 Z"/></g>
<g><path style="opacity:1" fill="#503c3f" d="M 217.5,397.5 C 222.586,398.685 227.586,400.185 232.5,402C 241.406,407.757 250.406,413.257 259.5,418.5C 260.795,419.488 262.128,420.488 263.5,421.5C 262.432,422.434 261.099,422.768 259.5,422.5C 256.327,421.83 253.327,420.664 250.5,419C 246.572,416.21 242.572,413.71 238.5,411.5C 238.246,409.23 236.913,407.063 234.5,405C 232.893,405.019 231.226,405.185 229.5,405.5C 226.417,402.785 222.75,400.785 218.5,399.5C 217.702,399.043 217.369,398.376 217.5,397.5 Z"/></g>
<g><path style="opacity:0.304" fill="#404040" d="M 291.5,421.5 C 292.751,422.472 292.418,423.139 290.5,423.5C 289.584,423.457 288.917,423.124 288.5,422.5C 289.209,421.596 290.209,421.263 291.5,421.5 Z"/></g>
<g><path style="opacity:1" fill="#9c243b" d="M 263.5,421.5 C 264.376,421.369 265.043,421.702 265.5,422.5C 263.364,423.793 261.364,423.793 259.5,422.5C 261.099,422.768 262.432,422.434 263.5,421.5 Z"/></g>
<g><path style="opacity:1" fill="#543b3f" d="M 425.5,427.5 C 428.64,426.359 431.973,426.192 435.5,427C 436.357,427.689 437.023,428.522 437.5,429.5C 435.433,429.85 434.433,431.517 434.5,434.5C 435.978,434.238 437.311,434.571 438.5,435.5C 436.813,436.568 435.146,436.401 433.5,435C 430.964,432.295 428.297,429.795 425.5,427.5 Z"/></g>
<g><path style="opacity:1" fill="#a8233a" d="M 449.5,427.5 C 452.087,428.648 453.087,430.315 452.5,432.5C 451.434,431.308 450.601,431.641 450,433.5C 448.926,432.382 447.76,431.382 446.5,430.5C 446.863,429.817 447.196,429.15 447.5,428.5C 448.492,428.672 449.158,428.338 449.5,427.5 Z"/></g>
<g><path style="opacity:1" fill="#4b3d3f" d="M 447.5,428.5 C 447.196,429.15 446.863,429.817 446.5,430.5C 447.76,431.382 448.926,432.382 450,433.5C 450.601,431.641 451.434,431.308 452.5,432.5C 452.196,433.15 451.863,433.817 451.5,434.5C 454.545,437.207 457.879,439.54 461.5,441.5C 461.238,442.978 461.571,444.311 462.5,445.5C 463.735,446.34 464.735,447.34 465.5,448.5C 468.169,450.999 471.002,453.332 474,455.5C 476.267,458.059 478.434,460.726 480.5,463.5C 481.85,464.95 483.516,465.617 485.5,465.5C 484.359,466.339 483.026,467.006 481.5,467.5C 478.926,465.976 476.259,464.642 473.5,463.5C 471.716,463.893 470.05,464.559 468.5,465.5C 466.453,463.925 464.119,462.925 461.5,462.5C 460.833,462.5 460.5,462.167 460.5,461.5C 461.71,461.068 462.71,460.401 463.5,459.5C 463.703,457.956 464.37,456.622 465.5,455.5C 463.922,454.702 462.256,454.202 460.5,454C 461.308,453.692 461.975,453.192 462.5,452.5C 461.264,451.643 459.931,450.977 458.5,450.5C 457.158,452.005 455.492,452.672 453.5,452.5C 454.429,451.685 455.429,450.852 456.5,450C 454.511,449.087 452.177,447.92 449.5,446.5C 450.833,445.833 452.167,445.167 453.5,444.5C 451.048,442.916 448.548,442.583 446,443.5C 444.982,441.072 443.148,439.738 440.5,439.5C 439.244,439.539 438.244,439.039 437.5,438C 438.784,437.316 439.951,437.483 441,438.5C 441.374,437.584 441.874,436.75 442.5,436C 441.972,433.739 441.972,431.239 442.5,428.5C 444.167,427.334 445.834,427.334 447.5,428.5 Z"/></g>
<g><path style="opacity:1" fill="#77303c" d="M 461.5,441.5 C 464.112,443.052 465.445,445.386 465.5,448.5C 464.735,447.34 463.735,446.34 462.5,445.5C 461.571,444.311 461.238,442.978 461.5,441.5 Z"/></g>
<g><path style="opacity:1" fill="#7a2e3c" d="M 440.5,439.5 C 443.148,439.738 444.982,441.072 446,443.5C 448.548,442.583 451.048,442.916 453.5,444.5C 452.167,445.167 450.833,445.833 449.5,446.5C 452.177,447.92 454.511,449.087 456.5,450C 455.429,450.852 454.429,451.685 453.5,452.5C 452.577,453.303 451.577,453.47 450.5,453C 450.833,452.667 451.167,452.333 451.5,452C 447.953,447.749 444.287,443.582 440.5,439.5 Z"/></g>
<g><path style="opacity:1" fill="#9f283a" d="M 440.5,448.5 C 443.089,449.419 445.089,451.086 446.5,453.5C 443.911,452.581 441.911,450.914 440.5,448.5 Z"/></g>
<g><path style="opacity:1" fill="#65343d" d="M 463.5,459.5 C 461.287,458.749 459.287,457.582 457.5,456C 456.167,455.333 456.167,454.667 457.5,454C 456.251,453.26 455.251,453.427 454.5,454.5C 453.662,454.158 453.328,453.492 453.5,452.5C 455.492,452.672 457.158,452.005 458.5,450.5C 459.931,450.977 461.264,451.643 462.5,452.5C 461.975,453.192 461.308,453.692 460.5,454C 462.256,454.202 463.922,454.702 465.5,455.5C 464.37,456.622 463.703,457.956 463.5,459.5 Z"/></g>
<g><path style="opacity:0.876" fill="#3f403f" d="M 256.5,457.5 C 259.833,457.5 263.167,457.5 266.5,457.5C 266.5,462.5 266.5,467.5 266.5,472.5C 271.833,472.5 277.167,472.5 282.5,472.5C 282.5,475.167 282.5,477.833 282.5,480.5C 277.167,480.5 271.833,480.5 266.5,480.5C 266.333,491.505 266.5,502.505 267,513.5C 267.465,514.931 268.299,516.097 269.5,517C 273.859,517.534 278.192,517.368 282.5,516.5C 282.988,519.711 282.321,522.544 280.5,525C 272.999,527.556 266.166,526.389 260,521.5C 258.25,518.754 257.25,515.754 257,512.5C 256.5,501.839 256.333,491.172 256.5,480.5C 254.833,480.5 253.167,480.5 251.5,480.5C 251.5,477.833 251.5,475.167 251.5,472.5C 253.167,472.5 254.833,472.5 256.5,472.5C 256.5,467.5 256.5,462.5 256.5,457.5 Z"/></g>
<g><path style="opacity:1" fill="#bb1a38" d="M 463.5,459.5 C 462.71,460.401 461.71,461.068 460.5,461.5C 458.806,460.473 457.473,459.139 456.5,457.5C 455.833,456.5 455.167,455.5 454.5,454.5C 455.251,453.427 456.251,453.26 457.5,454C 456.167,454.667 456.167,455.333 457.5,456C 459.287,457.582 461.287,458.749 463.5,459.5 Z"/></g>
<g><path style="opacity:0.992" fill="#a7273a" d="M 452.5,459.5 C 452.833,459.5 453.167,459.5 453.5,459.5C 455.914,460.911 457.581,462.911 458.5,465.5C 456.167,463.833 454.167,461.833 452.5,459.5 Z"/></g>
<g><path style="opacity:1" fill="#bf1a38" d="M 461.5,462.5 C 464.119,462.925 466.453,463.925 468.5,465.5C 468.196,466.15 467.863,466.817 467.5,467.5C 469.544,468.065 471.21,469.065 472.5,470.5C 467.181,470.191 463.515,467.524 461.5,462.5 Z"/></g>
<g><path style="opacity:1" fill="#7b2e3c" d="M 473.5,463.5 C 474.048,465.394 475.048,467.06 476.5,468.5C 475.234,469.362 473.901,470.029 472.5,470.5C 471.21,469.065 469.544,468.065 467.5,467.5C 467.863,466.817 468.196,466.15 468.5,465.5C 470.05,464.559 471.716,463.893 473.5,463.5 Z"/></g>
<g><path style="opacity:0.021" fill="#5b5b5b" d="M 374.5,468.5 C 376.176,467.29 377.51,467.79 378.5,470C 376.934,470.3 375.601,469.8 374.5,468.5 Z"/></g>
<g><path style="opacity:0.059" fill="#bd1a38" d="M 462.5,469.5 C 463.5,469.833 464.167,470.5 464.5,471.5C 463.167,471.5 462.5,470.833 462.5,469.5 Z"/></g>
<g><path style="opacity:0.896" fill="#403f3f" d="M 211.5,484.5 C 212.851,480.458 215.185,477.125 218.5,474.5C 219.167,474.5 219.5,474.167 219.5,473.5C 228.948,470.419 238.115,471.086 247,475.5C 247.824,478.882 247.657,482.216 246.5,485.5C 239.597,479.527 231.93,478.193 223.5,481.5C 220.609,485.318 220.943,488.818 224.5,492C 232.045,493.508 239.212,496.008 246,499.5C 252.336,515.803 246.67,524.803 229,526.5C 223.272,526.074 217.772,524.74 212.5,522.5C 211.167,518.833 211.167,515.167 212.5,511.5C 220.678,518.736 229.345,519.736 238.5,514.5C 239.927,511.467 239.594,508.634 237.5,506C 230.349,504.129 223.349,501.795 216.5,499C 212.156,495.124 210.489,490.291 211.5,484.5 Z"/></g>
<g><path style="opacity:0.9" fill="#3f403f" d="M 334.5,471.5 C 354.145,469.973 364.145,479.14 364.5,499C 364.544,517.959 355.211,526.959 336.5,526C 326.667,524.167 320.833,518.333 319,508.5C 315.711,495.695 318.545,484.529 327.5,475C 329.925,473.787 332.259,472.621 334.5,471.5 Z M 337.5,479.5 C 346.499,478.664 351.999,482.664 354,491.5C 354.804,497.569 354.471,503.569 353,509.5C 351.016,515.147 347.016,518.147 341,518.5C 331.166,515.96 326.666,509.46 327.5,499C 326.817,490.194 330.15,483.694 337.5,479.5 Z"/></g>
<g><path style="opacity:0.915" fill="#404040" d="M 391.5,471.5 C 403.385,469.254 410.552,473.921 413,485.5C 413.5,498.496 413.667,511.496 413.5,524.5C 410.167,524.5 406.833,524.5 403.5,524.5C 403.667,511.496 403.5,498.496 403,485.5C 401.601,481.762 398.934,480.096 395,480.5C 391.871,480.329 389.037,481.162 386.5,483C 387.579,483.956 388.745,484.789 390,485.5C 390.688,486.332 390.521,486.998 389.5,487.5C 387.851,486.352 386.351,485.019 385,483.5C 384,484.5 383,485.5 382,486.5C 381.5,499.162 381.333,511.829 381.5,524.5C 378.5,524.5 375.5,524.5 372.5,524.5C 372.5,507.167 372.5,489.833 372.5,472.5C 375.5,472.5 378.5,472.5 381.5,472.5C 381.34,474.199 381.506,475.866 382,477.5C 384.843,474.837 388.009,472.837 391.5,471.5 Z"/></g>
<g><path style="opacity:0.913" fill="#403f3f" d="M 649.5,487.5 C 650.726,483.38 652.726,479.713 655.5,476.5C 656.167,476.5 656.5,476.167 656.5,475.5C 666.621,470.988 676.955,470.488 687.5,474C 692.383,476.264 694.883,480.098 695,485.5C 695.333,496.5 695.667,507.5 696,518.5C 696.557,520.615 697.391,522.615 698.5,524.5C 693.208,525.495 687.875,525.828 682.5,525.5C 682.509,523.692 682.009,522.025 681,520.5C 678.374,523.231 675.207,525.064 671.5,526C 661.887,528.615 654.054,526.115 648,518.5C 644.013,505.816 648.513,497.982 661.5,495C 668.097,494.084 674.43,492.418 680.5,490C 679.944,487.763 678.944,485.763 677.5,484C 674.167,483.333 670.833,483.333 667.5,484C 665.167,485 663.5,486.667 662.5,489C 658.109,489.158 653.776,488.658 649.5,487.5 Z M 679.5,500.5 C 680.043,500.56 680.376,500.893 680.5,501.5C 681.56,510.098 677.893,514.764 669.5,515.5C 664.954,515.903 662.288,513.903 661.5,509.5C 661.876,507.617 662.876,506.117 664.5,505C 669.681,503.676 674.681,502.176 679.5,500.5 Z"/></g>
<g><path style="opacity:0.938" fill="#3f403f" d="M 734.5,471.5 C 740.892,470.791 746.892,471.957 752.5,475C 754.378,476.543 755.878,478.376 757,480.5C 758.451,495.428 758.951,510.428 758.5,525.5C 753.5,525.5 748.5,525.5 743.5,525.5C 743.901,512.448 743.401,499.448 742,486.5C 735.842,482.11 730.175,482.777 725,488.5C 723.606,500.78 723.106,513.114 723.5,525.5C 718.5,525.5 713.5,525.5 708.5,525.5C 708.5,507.833 708.5,490.167 708.5,472.5C 713.167,472.5 717.833,472.5 722.5,472.5C 722.338,474.527 722.505,476.527 723,478.5C 726.514,475.5 730.347,473.167 734.5,471.5 Z"/></g>
<g><path style="opacity:0.933" fill="#3f403f" d="M 288.5,472.5 C 291.5,472.5 294.5,472.5 297.5,472.5C 297.337,474.857 297.503,477.19 298,479.5C 303.149,474.51 309.316,472.177 316.5,472.5C 316.5,475.833 316.5,479.167 316.5,482.5C 309.233,481.222 303.066,483.222 298,488.5C 297.5,500.495 297.333,512.495 297.5,524.5C 294.5,524.5 291.5,524.5 288.5,524.5C 288.5,507.167 288.5,489.833 288.5,472.5 Z"/></g>
<g><path style="opacity:1" fill="#8d273b" d="M 628.5,473.5 C 633.348,472.186 638.348,472.186 643.5,473.5C 643.376,474.107 643.043,474.44 642.5,474.5C 638.03,473.514 633.363,473.181 628.5,473.5 Z"/></g>
<g><path style="opacity:0.99" fill="#d51037" d="M 624.5,525.5 C 599.561,553.161 568.895,571.994 532.5,582C 522.012,585.123 511.345,587.289 500.5,588.5C 502.17,564.858 499.17,541.858 491.5,519.5C 519.546,514.56 544.046,502.56 565,483.5C 570.119,497.02 574.952,510.687 579.5,524.5C 584.12,525.493 588.786,525.827 593.5,525.5C 595.892,514.326 598.892,503.326 602.5,492.5C 606.282,503.295 609.282,514.295 611.5,525.5C 615.833,525.5 620.167,525.5 624.5,525.5 Z"/></g>
<g><path style="opacity:0.004" fill="#414241" d="M 467.5,520.5 C 468.833,521.167 468.833,521.167 467.5,520.5 Z"/></g>
</svg>
